<svg width="426" height="438" viewBox="0 0 426 438" fill="none" xmlns="http://www.w3.org/2000/svg">
<path d="M423.994 289.76C391.838 140.17 271.146 39.3435 238.686 11.5835C232.166 6.00539 224.272 2.26709 215.827 0.755487C207.378 -0.756213 198.682 0.00940084 190.628 2.97429C164.269 12.697 141.858 33.4663 130.855 44.9863C126.402 49.6543 123.304 55.4513 121.906 61.7523C120.507 68.0531 120.855 74.6153 122.914 80.7293C128.918 97.9793 142.711 115.663 153.234 127.475C158.323 133.253 165.323 137.01 172.952 138.061C180.577 139.112 188.331 137.389 194.796 133.21L219.024 117.601C219.691 117.132 220.293 116.648 220.883 116.167C229.055 131.304 234.008 146.433 237.574 166.565C241.687 189.862 248.949 219.26 261.636 245.315C212.284 215.991 167.324 221.592 134.636 234.573C74.3159 185.761 11.516 205.292 8.85597 206.135V206.139C5.17237 207.326 3.15287 211.272 4.34037 214.955C5.52397 218.635 9.47317 220.658 13.1529 219.471C15.4615 218.737 67.7739 202.713 120.223 241.104C96.2579 253.342 81.7779 267.713 81.4069 268.096V268.1C80.1022 269.424 79.3757 271.213 79.3913 273.073C79.403 274.932 80.1569 276.709 81.4811 278.014C84.2389 280.733 98.4919 299.213 108.406 289.758C120.894 277.848 126.731 275.116 142.5 268.1C143.762 267.924 144.953 267.412 145.945 266.612C181.461 251.823 225.587 227.794 282.94 278.248L283.244 278.491L283.42 278.631C283.615 278.776 283.815 278.909 284.01 279.026H284.076C284.26 279.135 284.451 279.233 284.647 279.323L284.811 279.389L285.303 279.584L285.498 279.639L285.99 279.772H286.186L286.709 279.858H287.561H288.229H288.404L288.908 279.78H289.127L289.576 279.67L289.807 279.592L290.232 279.428L290.451 279.342L290.932 279.1L291.065 279.022L291.068 279.026C291.264 278.912 291.451 278.787 291.635 278.655C291.709 278.608 291.775 278.557 291.842 278.502L292.115 278.284L292.193 278.205L292.412 278.01L292.752 277.659L292.818 277.592L292.904 277.471V277.475C293.014 277.358 293.111 277.233 293.201 277.1L293.342 276.905C293.428 276.784 293.51 276.662 293.584 276.534L293.717 276.291L293.904 275.94C293.904 275.842 293.982 275.745 294.025 275.655L294.158 275.315L294.354 274.682L294.35 274.686C294.365 274.569 294.393 274.455 294.424 274.346C294.424 274.237 294.424 274.127 294.479 274.018C294.533 273.909 294.479 273.799 294.479 273.678V273.35V273.022V272.662V272.358V271.987C294.479 271.901 294.479 271.799 294.424 271.702V271.698C294.404 271.573 294.381 271.448 294.35 271.327C294.33 271.229 294.303 271.135 294.272 271.041C294.272 270.92 294.205 270.799 294.162 270.682L294.053 270.385C294.053 270.276 293.967 270.166 293.912 270.057C293.857 269.948 293.814 269.85 293.76 269.741C293.705 269.631 293.662 269.553 293.607 269.455C293.553 269.358 293.475 269.237 293.4 269.127L293.225 268.877L292.982 268.561L292.861 268.409C268.799 240.354 257.029 196.221 251.365 164.119C246.99 139.412 240.623 121.627 229.357 102.736C229.236 102.529 229.107 102.341 228.974 102.157C229.818 94.5012 226.131 87.1494 223.889 82.6884C223.287 81.4853 222.697 80.3368 222.217 79.2431L217.599 68.8521V68.8482C215.217 63.4966 210.549 59.5005 204.888 57.9812C199.228 56.4578 193.185 57.5711 188.439 61.0085L179.186 67.778C177.369 69.0983 176.291 71.2077 176.287 73.4538V93.7118C176.436 97.4735 179.529 100.446 183.295 100.446C187.057 100.446 190.15 97.4735 190.299 93.7118V76.9968L196.674 72.3718H196.678C198.006 71.4304 199.686 71.1296 201.26 71.5515C202.834 71.9734 204.135 73.0788 204.814 74.5593L209.439 84.9503C210.01 86.2315 210.686 87.587 211.396 88.9972C216.307 98.755 216.787 101.989 211.178 106.005L187.225 121.427C183.561 123.791 179.17 124.759 174.85 124.158C170.529 123.556 166.569 121.423 163.69 118.146C154.022 107.287 141.389 91.173 136.139 76.103C134.916 72.4233 134.721 68.4819 135.576 64.705C136.428 60.9238 138.299 57.4511 140.982 54.654C151.154 44.013 171.759 24.849 195.474 16.099C201.189 14.0013 207.365 13.4623 213.361 14.5365C219.358 15.6146 224.955 18.267 229.588 22.224C252.088 41.451 365.989 144.954 398.029 293.994C400.302 304.767 399.505 315.967 395.72 326.306L395.525 326.865V326.861C388.298 346.849 370.986 361.478 350.08 365.275C349.314 365.415 348.576 365.673 347.892 366.04C347.248 366.4 283.009 401.532 231.952 395.931C199.874 392.42 152.581 369.903 124.144 361.747C99.867 354.618 73.757 357.321 51.453 369.27C27.586 382.122 10.601 397.512 1.00002 415C0.093771 416.629 -0.128865 418.551 0.386755 420.344C0.902375 422.133 8.78139 435.704 10.4142 436.603C12.047 437.501 13.9728 437.708 15.7619 437.181C17.5471 436.654 19.051 435.439 19.9377 433.798C28.2268 418.728 43.3127 405.22 64.7817 393.669C83.8677 383.454 106.208 381.153 126.973 387.271C155.926 395.583 197.387 406.236 230.443 409.857C282.943 415.611 351.03 392.095 360 387.271H360.004C385.336 382.255 412.105 354.637 420.906 330.36L421.102 329.801C425.801 316.989 426.805 303.113 424 289.758L423.994 289.76Z" fill="black"/>
</svg>
