<svg width="700" height="700" viewBox="0 0 700 700" fill="none" xmlns="http://www.w3.org/2000/svg">
<path d="M560.879 420.76C528.723 271.17 408.032 170.343 375.572 142.583C369.052 137.005 361.158 133.267 352.713 131.755C344.263 130.244 335.568 131.009 327.514 133.974C301.155 143.697 278.744 164.466 267.741 175.986C263.288 180.654 260.19 186.451 258.792 192.752C257.393 199.053 257.741 205.615 259.799 211.729C265.803 228.979 279.596 246.663 290.119 258.475C295.209 264.253 302.209 268.01 309.838 269.061C317.463 270.112 325.217 268.389 331.682 264.21L355.909 248.601C356.577 248.132 357.179 247.648 357.769 247.167C365.941 262.304 370.894 277.433 374.46 297.565C378.573 320.862 385.835 350.26 398.522 376.315C349.17 346.991 304.21 352.592 271.522 365.573C211.202 316.761 148.402 336.292 145.742 337.135V337.139C142.058 338.326 140.039 342.272 141.226 345.955C142.41 349.635 146.359 351.658 150.039 350.471C152.347 349.737 204.66 333.713 257.109 372.104C233.144 384.342 218.664 398.713 218.293 399.096V399.1C216.988 400.424 216.261 402.213 216.277 404.073C216.289 405.932 217.043 407.709 218.367 409.014C221.125 411.733 235.378 430.213 245.292 420.758C257.78 408.848 263.617 406.116 279.386 399.1C280.647 398.924 281.839 398.412 282.831 397.612C318.347 382.823 362.472 358.794 419.825 409.248L420.13 409.491L420.306 409.631C420.501 409.776 420.7 409.909 420.896 410.026H420.962C421.146 410.135 421.337 410.233 421.532 410.323L421.696 410.389L422.189 410.584L422.384 410.639L422.876 410.772H423.071L423.595 410.858H424.446H425.114H425.29L425.794 410.78H426.013L426.462 410.67L426.692 410.592L427.118 410.428L427.337 410.342L427.817 410.1L427.95 410.022L427.954 410.026C428.149 409.912 428.337 409.787 428.521 409.655C428.595 409.608 428.661 409.557 428.728 409.502L429.001 409.284L429.079 409.205L429.298 409.01L429.638 408.659L429.704 408.592L429.79 408.471V408.475C429.899 408.358 429.997 408.233 430.087 408.1L430.228 407.905C430.314 407.784 430.396 407.662 430.47 407.534L430.603 407.291L430.79 406.94C430.79 406.842 430.868 406.745 430.911 406.655L431.044 406.315L431.239 405.682L431.235 405.686C431.251 405.569 431.278 405.455 431.31 405.346C431.31 405.237 431.31 405.127 431.364 405.018C431.419 404.909 431.364 404.799 431.364 404.678V404.35V404.022V403.662V403.358V402.987C431.364 402.901 431.364 402.799 431.31 402.702V402.698C431.29 402.573 431.267 402.448 431.235 402.327C431.216 402.229 431.188 402.135 431.157 402.041C431.157 401.92 431.091 401.799 431.048 401.682L430.938 401.385C430.938 401.276 430.853 401.166 430.798 401.057C430.743 400.948 430.7 400.85 430.646 400.741C430.591 400.631 430.548 400.553 430.493 400.455C430.438 400.358 430.36 400.237 430.286 400.127L430.11 399.877L429.868 399.561L429.747 399.409C405.685 371.354 393.915 327.221 388.251 295.119C383.876 270.412 377.509 252.627 366.243 233.736C366.122 233.529 365.993 233.341 365.86 233.157C366.704 225.501 363.016 218.149 360.774 213.688C360.173 212.485 359.583 211.337 359.102 210.243L354.485 199.852V199.848C352.102 194.497 347.434 190.501 341.774 188.981C336.114 187.458 330.071 188.571 325.325 192.009L316.071 198.778C314.255 200.098 313.177 202.208 313.173 204.454V224.712C313.321 228.474 316.415 231.446 320.181 231.446C323.942 231.446 327.036 228.474 327.185 224.712V207.997L333.56 203.372H333.563C334.892 202.43 336.571 202.13 338.145 202.552C339.72 202.973 341.02 204.079 341.7 205.559L346.325 215.95C346.895 217.232 347.571 218.587 348.282 219.997C353.192 229.755 353.673 232.989 348.063 237.005L324.11 252.427C320.446 254.791 316.056 255.759 311.735 255.158C307.415 254.556 303.454 252.423 300.575 249.146C290.907 238.287 278.274 222.173 273.024 207.103C271.802 203.423 271.606 199.482 272.462 195.705C273.313 191.924 275.185 188.451 277.868 185.654C288.04 175.013 308.645 155.849 332.36 147.099C338.075 145.001 344.251 144.462 350.247 145.537C356.243 146.615 361.841 149.267 366.474 153.224C388.974 172.451 502.874 275.954 534.914 424.994C537.188 435.767 536.391 446.967 532.606 457.306L532.41 457.865V457.861C525.184 477.849 507.871 492.478 486.965 496.275C486.2 496.415 485.461 496.673 484.778 497.04C484.133 497.4 419.895 532.532 368.838 526.931C336.76 523.42 289.467 500.903 261.03 492.747C236.753 485.618 210.643 488.321 188.339 500.27C164.472 513.122 147.487 528.512 137.886 546C136.979 547.629 136.757 549.551 137.272 551.344C137.788 553.133 145.667 566.704 147.3 567.603C148.933 568.501 150.859 568.708 152.648 568.181C154.433 567.654 155.937 566.439 156.823 564.798C165.113 549.728 180.198 536.22 201.667 524.669C220.753 514.454 243.093 512.153 263.858 518.271C292.811 526.583 334.272 537.236 367.328 540.857C419.828 546.611 487.916 523.095 496.886 518.271H496.89C522.222 513.255 548.991 485.637 557.792 461.36L557.987 460.801C562.687 447.989 563.69 434.113 560.886 420.758L560.879 420.76Z" fill="black"/>
</svg>
