<svg width="410" height="438" viewBox="0 0 410 438" fill="none" xmlns="http://www.w3.org/2000/svg">
<path d="M407.716 291.053C375.56 141.464 267.146 39.3435 234.686 11.5835C228.166 6.00539 220.272 2.26709 211.827 0.755487C203.378 -0.756213 194.682 0.00940084 186.628 2.97429C160.269 12.697 137.858 33.4663 126.855 44.9863C122.402 49.6543 119.304 55.4513 117.906 61.7523C116.507 68.0531 116.855 74.6153 118.913 80.7293C124.917 97.9793 138.711 115.663 149.234 127.475C154.323 133.253 161.323 137.01 168.952 138.061C176.577 139.112 184.331 137.389 190.796 133.21L215.024 117.601C215.691 117.132 216.293 116.648 216.883 116.167C225.055 131.304 230.008 146.433 233.574 166.565C237.687 189.862 244.949 219.26 257.636 245.315C208.284 215.991 163.324 221.592 130.636 234.573C70.3159 185.761 7.51589 205.292 4.85589 206.135V206.139C1.17229 207.326 -0.847205 211.272 0.340295 214.955C1.5239 218.635 5.47309 220.658 9.15279 219.471C11.4614 218.737 63.7738 202.713 116.223 241.104C92.2578 253.342 77.7778 267.713 77.4068 268.096V268.1C76.1021 269.424 75.3756 271.213 75.3912 273.073C75.4029 274.932 76.1568 276.709 77.481 278.014C80.2388 280.733 84.6763 280.702 87.3951 277.944C99.8831 266.034 114.325 256.358 130.094 249.342C131.356 249.166 132.547 248.654 133.539 247.853C169.055 233.064 221.586 227.794 278.939 278.248L279.244 278.491L279.42 278.631C279.615 278.776 279.814 278.909 280.01 279.026H280.076C280.26 279.135 280.451 279.233 280.646 279.323L280.81 279.389L281.303 279.584L281.498 279.639L281.99 279.772H282.185L282.709 279.858H283.56H284.228H284.404L284.908 279.78H285.127L285.576 279.67L285.807 279.592L286.232 279.428L286.451 279.342L286.932 279.1L287.064 279.022L287.068 279.026C287.264 278.912 287.451 278.787 287.635 278.655C287.709 278.608 287.775 278.557 287.842 278.502L288.115 278.284L288.193 278.205L288.412 278.01L288.752 277.659L288.818 277.592L288.904 277.471V277.475C289.014 277.358 289.111 277.233 289.201 277.1L289.342 276.905C289.428 276.784 289.51 276.662 289.584 276.534L289.717 276.291L289.904 275.94C289.904 275.842 289.982 275.745 290.025 275.655L290.158 275.315L290.353 274.682L290.35 274.686C290.365 274.569 290.392 274.455 290.424 274.346C290.424 274.237 290.424 274.127 290.478 274.018C290.533 273.909 290.478 273.799 290.478 273.678V273.35V273.022V272.662V272.358V271.987C290.478 271.901 290.478 271.799 290.424 271.702V271.698C290.404 271.573 290.381 271.448 290.35 271.327C290.33 271.229 290.303 271.135 290.271 271.041C290.271 270.92 290.205 270.799 290.162 270.682L290.053 270.385C290.053 270.276 289.967 270.166 289.912 270.057C289.857 269.948 289.814 269.85 289.76 269.741C289.705 269.631 289.662 269.553 289.607 269.455C289.553 269.358 289.475 269.237 289.4 269.127L289.225 268.877L288.982 268.561L288.861 268.409C264.799 240.354 253.029 196.221 247.365 164.119C242.99 139.412 236.623 121.627 225.357 102.736C225.236 102.529 225.107 102.341 224.974 102.157C225.818 94.5012 222.131 87.1494 219.889 82.6884C219.287 81.4853 218.697 80.3368 218.217 79.2431L213.599 68.8521V68.8482C211.217 63.4966 206.549 59.5005 200.888 57.9812C195.228 56.4578 189.185 57.5711 184.439 61.0085L175.186 67.778C173.369 69.0983 172.291 71.2077 172.287 73.4538V93.7118C172.436 97.4735 175.529 100.446 179.295 100.446C183.057 100.446 186.15 97.4735 186.299 93.7118V76.9968L192.674 72.3718H192.678C194.006 71.4304 195.686 71.1296 197.26 71.5515C198.834 71.9734 200.135 73.0788 200.814 74.5593L205.439 84.9503C206.01 86.2315 206.686 87.587 207.396 88.9972C212.307 98.755 212.787 101.989 207.178 106.005L183.225 121.427C179.561 123.791 175.17 124.759 170.85 124.158C166.529 123.556 162.569 121.423 159.69 118.146C150.022 107.287 137.389 91.173 132.139 76.103C130.916 72.4233 130.721 68.4819 131.576 64.705C132.428 60.9238 134.299 57.4511 136.982 54.654C147.154 44.013 167.759 24.849 191.474 16.099C197.189 14.0013 203.365 13.4623 209.361 14.5365C215.358 15.6146 220.955 18.267 225.588 22.224C248.088 41.451 361.988 144.954 394.028 293.994C396.302 304.767 395.505 315.967 391.72 326.306L391.525 326.865V326.861C384.298 346.849 366.985 361.478 346.079 365.275C345.314 365.415 344.576 365.673 343.892 366.04C343.247 366.4 279.009 401.532 227.952 395.931C195.874 392.42 155.249 381.962 126.812 373.806C102.535 366.677 76.425 369.381 54.121 381.33C30.254 394.182 13.269 409.572 3.66799 427.06C2.76174 428.689 2.53911 430.611 3.05473 432.404C3.57035 434.193 4.78132 435.704 6.41412 436.603C8.04692 437.501 9.97272 437.708 11.7618 437.181C13.547 436.654 15.0509 435.439 15.9376 433.798C24.2267 418.728 39.3126 405.22 60.7816 393.669C79.8676 383.454 102.208 381.153 122.973 387.271C151.926 395.583 193.387 406.236 226.443 409.857C278.943 415.611 340.663 383.673 349.633 378.849H349.637C374.969 373.833 395.828 355.931 404.629 331.654L404.824 331.095C409.523 318.283 410.527 304.407 407.722 291.052L407.716 291.053Z" fill="black"/>
</svg>
