<svg width="700" height="700" viewBox="0 0 700 700" fill="none" xmlns="http://www.w3.org/2000/svg">
<path d="M490.951 261.441C478.24 241.074 461.283 223.687 441.24 210.468C421.197 197.253 398.541 188.511 374.81 184.847H374.4H374.404C337.06 179.242 298.924 186.48 266.234 205.374C233.539 224.269 208.23 253.702 194.445 288.854C194.285 289.194 194.148 289.546 194.039 289.905C182.715 319.432 180.035 351.573 186.316 382.565C192.597 413.557 207.578 442.12 229.504 464.905C229.887 465.432 230.34 465.901 230.848 466.307C254.493 490.428 284.926 506.78 318.09 513.19C351.258 519.601 385.59 515.761 416.524 502.182L417.633 501.718L417.629 501.714C446.508 488.816 471.117 467.96 488.578 441.585C506.039 415.214 515.629 384.413 516.226 352.792C516.82 321.167 508.398 290.026 491.945 263.015C491.687 262.448 491.351 261.921 490.953 261.441L490.951 261.441ZM374.991 199.433C413.3 205.914 447.686 226.781 471.124 257.765C401.124 254.847 359.534 274.913 345.824 282.847C340.523 278.738 334.258 276.047 327.625 275.031C331.359 258.582 343.316 219.148 374.992 199.433L374.991 199.433ZM324.823 339.433H321.675C312.897 338.781 305.089 333.609 301.07 325.777C297.05 317.949 297.398 308.589 301.984 301.078C306.574 293.567 314.742 288.984 323.543 288.984C332.344 288.984 340.512 293.566 345.098 301.078C349.688 308.59 350.031 317.949 346.012 325.777C341.992 333.609 334.188 338.781 325.41 339.433H324.823ZM229.917 443.613C197.483 402.289 188.663 347.156 206.581 297.773C232.573 289.266 260.503 288.637 286.851 295.965C280.609 307.629 280.609 321.637 286.851 333.301C263.035 354.188 245.808 381.547 237.265 412.051C234.066 422.379 231.609 432.926 229.917 443.61L229.917 443.613ZM415.187 487.011C385.875 463.163 362.992 432.363 348.628 397.409C342.394 382.749 337.55 367.534 334.163 351.968C340.964 349.695 347.026 345.617 351.698 340.171C356.37 334.73 359.483 328.12 360.702 321.054C376.354 320.363 392.034 321.636 407.37 324.843C443.417 331.55 475.901 350.863 499.011 379.327C489.523 426.409 458.456 466.288 415.128 487.007L415.187 487.011Z" fill="#0F0F0F"/>
</svg>
