<svg id="Layer_1" data-name="Layer 1" xmlns="http://www.w3.org/2000/svg" viewBox="0 0 403.57 325.53"><defs><style>.cls-1{fill:#0d0e13;}.cls-2{fill:#242f36;}.cls-3{fill:#2a353b;}.cls-4{fill:#3f505b;}.cls-5{fill:#101016;}.cls-6{fill:#7c909c;}.cls-7{fill:#566977;}.cls-8{fill:#212b31;}.cls-9{fill:#495c69;}.cls-10{fill:#fddb02;}.cls-11{fill:#f8e76d;}.cls-12{fill:#eca506;}.cls-13{fill:#202c34;}.cls-14{fill:#283942;}.cls-15{fill:#fefefe;}.cls-16{fill:#ecba95;}</style></defs><path class="cls-1" d="M488.61,350c1.12,3.53,4.69,5.88,4.77,9.91-7.05-1-14.24-.35-21.25-1.23-10-1.26-19.72.6-29.57,1a47.81,47.81,0,0,0-13.89,2.22c6.09,4.37,12.81,6.78,17.25,12.32-5,3.78-5.71,8.73-3.87,14.36-1.76,2.57-2.75.17-3.81-.69-5-4.07-9.91-8.21-15.43-12.8-.19,12,2.73,22.44,6,32.8l-6.9,2.34c-1.08-9.63-3.71-18.93-6-28.3-.28-1.13-.54-2.46-1.93-2.54-1.76-.1-2,1.3-2.12,2.69-.95,2.85-2,5.64-4.06,7.91-1.17-4.56,1.59-8.47,2.08-12.78,2.85-24.93,16.82-41,39.9-49.86,2.72-1,6.35-.85,8-4.09,22.83-4.23,45.79-5.66,68.93-3.23v2l-30.94,10.13c-2.27-2.62-4.69-.18-7-.07-17.52.87-34.29,5.34-50.78,11-.79.27-1.59.55-1.2,1.78C454.26,344.94,471.47,347.08,488.61,350Z" transform="translate(-123.19 -277.21)"/><path class="cls-2" d="M457.84,323.19c-1.69,3.24-5.32,3.05-8,4.09-23.08,8.9-37.05,24.93-39.9,49.86-.49,4.31-3.25,8.22-2.08,12.78,0,.34,0,.69,0,1-2.24,0-3.24,2.13-5,3-3.16,1.6-6.41,2.52-9.91,1.13,1.3-5.25,1.67-10.47-.82-15.52-1.51-3-3.29-3.71-5.32-.4a6.68,6.68,0,0,0-5.26,5.71c-3,2.8-2.82,6.34-2.2,9.95,1,6,3,11.9,2.54,18.12a9.65,9.65,0,0,0-5,8.11c-.75,2.52-.53,5.42-2.84,7.34-2.31-1-4.2.46-6.17,1.12a109.59,109.59,0,0,1-45.42,5.63c-16.37-1.52-30.74-7.44-44.05-16.75-3.9-2.74-6.95-6.61-11.49-8.46v0l-1-1h0a8.5,8.5,0,0,0-4.05-4l0,0-1-1,0,0-1-1,0,0c-.32-.93-1.1-1-1.9-1a24.37,24.37,0,0,0-2.35-3.69c-9.09-9.75-14.47-21.75-20.35-33.45-6.25-12.46-11.43-25.61-22.77-34.74a3.87,3.87,0,0,1-1.68-2.94,21.48,21.48,0,0,1,3.29,1,171.32,171.32,0,0,1,34.76,21.32c10.63,8.53,21,17.4,33.79,22.74q.66,11.85,1.33,23.71l.09,5.88a11.25,11.25,0,0,0,4.9,14.71c13,6.56,26.61,11,41.45,10.49a123.24,123.24,0,0,0,36.93-6.7,8.91,8.91,0,0,0,4.18-2.53c3.22-3.87,3.16-23.37-.11-27.62-.07-.1-.31-.07-.48-.1q.61-12.9,1.22-25.79c3.15-.34,5.39-2.46,7.82-4.11,16.11-11,32.07-22.22,50.38-29.47,2.53-1,5.63-.94,7.46-3.49A137.27,137.27,0,0,1,457.84,323.19Zm-166,99.72c-.35-.42-.56-1.29-1.3-.38l1.31.36c.35.42.57,1.3,1.31.37Zm3.72,1.51c19.46,9.44,39.57,10.86,60.28,4.78C335.35,433,315.29,431,295.6,424.42Zm63.92,3.6-.85.35a5.45,5.45,0,0,0,.76.39c.12,0,.29-.09.44-.14Z" transform="translate(-123.19 -277.21)"/><path class="cls-1" d="M210.85,327.1a3.87,3.87,0,0,0,1.68,2.94c11.34,9.13,16.52,22.28,22.77,34.74,5.88,11.7,11.26,23.7,20.35,33.45a24.37,24.37,0,0,1,2.35,3.69c.27,1,1,1.15,1.9,1l0,0a.94.94,0,0,0,1,1l0,0c0,.68.32,1.05,1,1l0,0v2a10.59,10.59,0,0,0-8.17,2.54c-4.23,3.54-8.52,7-12.78,10.52l-5-1.23c-.26-1.62.5-2.77,1.52-4,3-3.52,5.9-7.08,8.67-10.76,1.15-1.53,2.93-3.43,2.16-5.25-.94-2.25-3.64-2-5.74-1.73-4.56.46-9.12,1-13.64,1.82-1.72.3-4.21-1-5,1.85-12-2.59-24.23-4.18-35.82-8.47,3.69-1.33,6.19-4.35,9.27-6.54,9.88-7,20.71-12.28,33-17.65-16.11-3.05-31.05-2.44-46-1.43-.13,0-.24.22-.36.34A190.93,190.93,0,0,0,159,359.78a16.27,16.27,0,0,1,4.28-4.07c8.82-6.61,19.2-9.59,29.49-12.72,5.09-1.54,10.3-2.68,15.45-4-19.62-4.12-39.32-5.36-59.13-5.09-7.55-6.24-17.19-8.21-25.89-12.86,20-8.75,40.6-9.55,61.67-5.89a1.66,1.66,0,0,0,2.31.58l1.67.41Z" transform="translate(-123.19 -277.21)"/><path class="cls-3" d="M371,463.1c.61,12.62,1.26,25.24,1.8,37.87.11,2.56.72,5.47-2.51,6.9.33-2.83-.76-4.41-3.77-4.49-4.2-.1-8.51-1.87-12.52.83-4.37-4.33-10-1.77-15-2.81l-.09-3.55,0,0c2.35-.34,2.66-2.2,3-4,1-6,4.34-9.26,10.32-10,3.42-.42,7-1.45,8.21-4.7a8,8,0,0,1,3.5-4.1c.71-2.64-5.47.53-2.06-2.74s-2.25-2-1-3.78c2.23-1.54,5.32-2.88,4.41-6.77-2.18,4-5.79,5.59-9.9,5.74q-11.93.44-23.89.25a6.57,6.57,0,0,1-5.53-3.78c4.75-.67,9.8.7,14.23-2.1,1.64-.59,3.49-.66,4.81-2,1-.21,2.44.58,3-1.07l-.09.08c4.53-3.13,4.61-5.9.24-9a35.77,35.77,0,0,0-10.33-5c-7-3.28-14.45-2.36-21.82-2l-1,1.15.28,0c-4.1.58-8.24,1-11.58,3.88-4.19,3.5-3.65,6.44,1.84,9.94a1.11,1.11,0,0,1,.87.32l.09.34L309,459c.44,2.14,2.44,2.09,3.88,2.49,3.31.94,6.72,1.55,10.08,2.29-1.11,2.44-3.07,3.15-5.65,3.14-8.09,0-15.47-3.32-23.23-4.77-4.09-.77-7-2.63-8.74-6.63a4.64,4.64,0,0,0,1.4,5.58c.9.78,2.73,1.15,1.82,3-.71,1.42-2.21-.62-3.13.59,0,1.66,2.83,1.86,2.1,4-2.14,6.21,1.35,9.09,6.5,11.28,7.38,3.13,10.14,11.24,6.75,19-3.25-.37-6.54-.53-9.74-1.15-4.12-.81-5.67.93-5.53,4.81l-1.37,0-.14-.16c.94-4.05-.69-5.83-4.8-5.62a17.09,17.09,0,0,1-4.9-.33c-4.74-1.16-6.35.76-5.61,5.3-.62,1.05-.9,3-2.66,1,1.79-7.58,3.6-15.14,5.35-22.72,2.78-12.1,6.64-23.94,8.58-36.24l0,.05c2.45-2.14,2-5.33,2.95-8,.46-2.41.56-4.93,2.18-7,3.2-.08,5.56,2,8.27,3.23,27.61,12.19,54.89,12.48,81.8-2.12l.6,3.2,3-7.57c4.73,7,11.65,8.24,19.37,7.4-.92,5.21-2.83,10.15-4.23,15.22-2.45,8.92-8.47,12.41-17.14,12.75C374.63,461.07,372.35,461,371,463.1Zm-6.14,23.75-1,1-1,1c-4.8,2.1-2.17,6.76-3.79,10,3.17-2.65,2.58-6.61,3.82-9.93l1-1,1-1,.4-.43Zm-83.92-5a4.92,4.92,0,0,0-2.57-4.91c0,2.6.87,4,2.53,4.95.38,4.09-.64,8.3,1.06,12.33a40.48,40.48,0,0,0,1.67-9.35A2.79,2.79,0,0,0,280.91,481.84Zm2.74-19-.22-.31-.29.26.39.39Zm1.21,6.32c-.11.07-.26.12-.29.21s.1.2.15.3l.47-.36Z" transform="translate(-123.19 -277.21)"/><path class="cls-4" d="M307.86,314.12a111.61,111.61,0,0,1,34.41-1.37,19.71,19.71,0,0,0,3.41-.21l.18,1.41c.17,7.87-1.09,16.26,8,20.74a5.71,5.71,0,0,1,2.88,3.32l-3.92-.05c-2-3.33-3.87-3-6.44-.29-4,4.14-6.36,9.25-9.41,14-2,3.11-3.4,7-7.87,7.64-6.81-1.89-9-8.2-12.67-13.16-3.05-4.17-5.14-9.26-10.6-11.14l-2-.07c0-1.28.9-2,1.59-3,2.4-3.29,2.88-12.17.9-15.17l-.2-1.94Z" transform="translate(-123.19 -277.21)"/><path class="cls-5" d="M352.94,560.83c-1.51,4.51-4.44,6.4-9.36,6.06-4.45-.31-9,.38-13.46.39-2.49,0-3.35,1-3.71,3.4-1.36,9.21-3,18.37-4.43,27.57-.32,2.06-.71,3.33-3.22,3.38-15.14.3-30.28.76-45.42,1.11-.55,0-1.12-.48-1.68-.74.09-.14.28-.29.26-.4a5.69,5.69,0,0,0-.32-.87c-.07-1.23-.15-2.47-.22-3.7,1.45-.45,1.27-1.72,1.42-2.83l4.26-31.27L327,561.52Zm-57.12,10.23c-12.41-1.88-12.41-1.88-14.27,10.12-.18,1.13-.34,2.26-.51,3.39-.19,2-.05,4.06-.63,5.91-1.08,3.47.09,4.5,3.49,4.41,6.15-.18,12.3-.06,18.45-.13,13.68-.17,13.66-.19,15.58-13.81.5-3.53,3-8.13.94-10.29-2.33-2.45-7.27-.9-11-.71C303.84,570.16,299.61,568.5,295.82,571.06Z" transform="translate(-123.19 -277.21)"/><path class="cls-3" d="M240.9,419.94c4.26-3.5,8.55-7,12.78-10.52a10.6,10.6,0,0,1,8.18-2.54l1.07,1.06,1.24,1h1.73l1,1v0c.1,2.74,2.84,3.56,4,5.52l1,1.48v0c1.52,5.06,6.41,6.41,10.05,9.14l-.09,9.89a2.23,2.23,0,0,0-1,2c-10,2.07-19.66,1.23-28.8-3.76-1-.53-2.61-1.74-3.61-.49-1.28,1.59.67,2.52,1.4,3.71,1.89,3.07,6.69,3.44,7.15,7.79-2.6,1.78-3.4,4.46-4.19,7.38-1.15,4.24-2.93,8.32-4.44,12.46-4.09-4.33-8.49-8.18-14.57-9.49-.39-.08-.59-1.05-.88-1.6l2.07-6.05c1.91.14,3.22,1.62,4.87,2.24,3.34,1.27,6.77,1.86,10.63-2.26-9.37.8-13.87-3.83-16.52-10.91,1.22-3.75-2.36-3.61-4.05-5,2.64-.46,4.4-2.15,5.94-4.17.62,1.64-.95,4.14,1.11,5,2.28.92,2.76-1.81,3.83-3.07a39.53,39.53,0,0,1,8.55-7.51,94.81,94.81,0,0,1,15.42-7.83c-6.5-3.45-11.3-2.44-17.95,3.24-1.7,1.44-2.92,3.79-5.75,3.29A1.45,1.45,0,0,1,240.9,419.94Z" transform="translate(-123.19 -277.21)"/><path class="cls-6" d="M303.84,334.9l2,.07c-.2,4.48-3.25,8.29-3,12.87-9.23,3-9.67,4.05-10,13.92A50.85,50.85,0,0,0,295.93,381c-2-.48-1.72-3.15-4.12-3.92-2,6.27-5.86,11.87-6.12,18.75l-1.67,0q-.66-11.86-1.33-23.71c-.09-5.75,1.07-11.56-.81-17.23,1.73-6.64,1.06-13.51,2-20.25,2.36-17.47,4.08-35,11.46-51.38.95-2.1,1.36-4.58,4.63-4.17,3.54.44,3.4,3.1,3.59,5.58.73,9.92.84,19.93,4.33,29.44l-1.73.68c-5.6-10.59-4.37-22.41-5.66-34.07-8.37,7.84-13.09,53-7.33,67.1,1.44-1.1,1.75-2.74,2.22-4.3Q299.61,339.21,303.84,334.9Z" transform="translate(-123.19 -277.21)"/><path class="cls-7" d="M281.88,354.9c1.88,5.67.72,11.48.81,17.23-12.77-5.34-23.16-14.21-33.79-22.74a171.32,171.32,0,0,0-34.76-21.32,21.48,21.48,0,0,0-3.29-1l-22-11c7.24.4,13.88,3.15,20.6,5.44C234.72,330.21,258.24,342.69,281.88,354.9Z" transform="translate(-123.19 -277.21)"/><path class="cls-8" d="M149.08,333.9c19.81-.27,39.51,1,59.13,5.09-5.15,1.32-10.36,2.46-15.45,4-10.29,3.13-20.67,6.11-29.49,12.72a16.27,16.27,0,0,0-4.28,4.07,92,92,0,0,1-9.08-2.08c-5-1.69-5.84-4.55-2.88-9.06a27.51,27.51,0,0,1,1.81-2.34C153.29,340.78,153.31,339.6,149.08,333.9Z" transform="translate(-123.19 -277.21)"/><path class="cls-8" d="M398,433c-7.72.84-14.64-.43-19.37-7.4-.29-1.65-.11-3.5-1.8-4.61a9.65,9.65,0,0,1,5-8.11c.42.6,1.37,1,1.53.38,1-3.7,3.57-6.93,3.47-11,3.85-7.74,4.13-15.46-.08-23.18,2-3.31,3.81-2.65,5.32.4,2.49,5.05,2.12,10.27.82,15.52,0,5.83-1.56,11.37-3.26,16.85-1.3,4.19.14,6.89,4,8,5.08,1.49,10.29,2.11,15.14-1a2.2,2.2,0,0,0,2-1,9.37,9.37,0,0,0,6.65-10.41c-1.32-8.56-2.35-17.28-5.58-25.46.08-1.39.36-2.79,2.12-2.69,1.39.08,1.65,1.41,1.93,2.54,2.26,9.37,4.89,18.67,6,28.3-1.48,8.14-7.58,12.12-14.11,15.72C405.13,429.08,402.34,432.08,398,433Zm4.9-6.5c-6.87-.35-13.5-.72-18.75-6.36-1.12,4.42,1.12,6.25,4.06,7.44C393.28,429.64,398.25,429.86,402.94,426.52Z" transform="translate(-123.19 -277.21)"/><path class="cls-7" d="M437.86,327.11c-1.83,2.55-4.93,2.48-7.46,3.49-18.31,7.25-34.27,18.48-50.38,29.47-2.43,1.65-4.67,3.77-7.82,4.11q-.69-10-1.37-20c20.83-6.36,41.78-12.27,63.12-16.71A38.63,38.63,0,0,1,437.86,327.11Z" transform="translate(-123.19 -277.21)"/><path class="cls-8" d="M488.61,350c-17.14-2.89-34.35-5-51.73-5.18-.39-1.23.41-1.51,1.2-1.78,16.49-5.65,33.26-10.12,50.78-11,2.28-.11,4.7-2.55,7,.07C486.94,338.2,486.36,339.64,488.61,350Z" transform="translate(-123.19 -277.21)"/><path class="cls-1" d="M354.44,280.2l.69,1.62a1,1,0,0,0-.85,1.46c4.78,12.17,6.86,24.92,8.16,37.82A63.22,63.22,0,0,1,360.82,344c-.69-1.65-1.37-3.31-2.06-5,.3-1.88-.39-3.53-.92-5.3-2.23-7.44-7.55-13.12-11-19.84,2.46-9.88,3-20,2.76-30.08C349.49,279.67,350.69,278.59,354.44,280.2Z" transform="translate(-123.19 -277.21)"/><path class="cls-8" d="M445.92,374.15c-4.44-5.54-11.16-7.95-17.25-12.32a47.81,47.81,0,0,1,13.89-2.22c9.85-.36,19.6-2.22,29.57-1,7,.88,14.2.26,21.25,1.23-1.43,4.07-5.2,3.54-8.27,3.95C471.59,365.59,458.33,368.22,445.92,374.15Z" transform="translate(-123.19 -277.21)"/><path class="cls-9" d="M360.82,344a63.22,63.22,0,0,0,1.62-22.92c-1.3-12.9-3.38-25.65-8.16-37.82a1,1,0,0,1,.85-1.46l.28-.4.46.15a263.53,263.53,0,0,1,9.49,38.52,308.86,308.86,0,0,1,4.24,68c-2.25-.56-2.05-2.79-2.75-4.3-2.38-5.17-2.29-5.21-6.28-1.45-.09.08-.54-.23-.82-.36,4.7-10,3.64-20.4,2.06-30.83C362.15,348.65,361.47,346.34,360.82,344Z" transform="translate(-123.19 -277.21)"/><path class="cls-8" d="M183.94,366.92c.12-.12.23-.33.36-.34,15-1,29.9-1.62,46,1.43-12.27,5.37-23.1,10.62-33,17.65-3.08,2.19-5.58,5.21-9.27,6.54-2.69-.93-.94-2.32-.24-3.39,1.63-2.51,3.57-4.82,5.12-7.38,3-5,2.38-7.56-2.56-10.8C188.32,369.27,186.09,368.15,183.94,366.92Z" transform="translate(-123.19 -277.21)"/><path class="cls-8" d="M428.8,407.82c-3.26-10.36-6.18-20.79-6-32.8,5.52,4.59,10.44,8.73,15.43,12.8,1.06.86,2.05,3.26,3.81.69.63,1.14,1.28,2.28,1.88,3.43,3.75,7.22,3.13,9.17-4.35,12.24C436.07,405.61,432.4,406.62,428.8,407.82Z" transform="translate(-123.19 -277.21)"/><path class="cls-7" d="M277.06,562.93,272.8,594.2c-.15,1.11,0,2.38-1.42,2.83-2.07-13.81-2.36-27.77-3.38-41.67-.8-11.1-1.59-22.22,0-33.33l3.83.85c.08,2.67.15,5.34.23,8,.25,5.73.59,11.45.7,17.18.07,3.77,1.73,1.33,2.92.9Q276.4,555.94,277.06,562.93Z" transform="translate(-123.19 -277.21)"/><path class="cls-10" d="M271.87,522.88,268,522c-1-2.3-.72-5.49-4.18-6.12.2-8-1.75-16.09-.05-24.17a6.26,6.26,0,0,0-.54-4.84q.84-6.51,1.7-13c.17-1.34.46-2.6,2.09-2.88-.79,8.59-1.65,17.18-2.31,25.78-.15,2-.91,4.36,1.23,6,1.76,2.08,2,.09,2.66-1,5.14-.6,10.15,1.75,15.31.65l.14.16c-.09,2.8,0,5.62-.31,8.41-.26,2.56-2,3.55-4.2,2.25-5.45-3.24-5.39-3.34-11.14,1,1.65.8,3.18,1,4.42-.58,2.07-2.69,3.73-2.19,5.24.53a2.85,2.85,0,0,0,3.36,1.4c2.09-.36,1.14,1.47,1.52,2.34.35,3.85-1.38,5.4-5.22,4.95A52.58,52.58,0,0,0,271.87,522.88Z" transform="translate(-123.19 -277.21)"/><path class="cls-4" d="M352.94,560.83l-25.93.69c.61-4.72-2.73-8.85-2.08-13.58l26.85-.15A34,34,0,0,1,352.94,560.83Z" transform="translate(-123.19 -277.21)"/><path class="cls-7" d="M398,433c4.3-.94,7.09-3.94,9.75-7.14-1.21,9.26-3.16,18.25-8,26.44-5.34,9-12.91,13.1-23.37,11.54-1.8-.27-3.61-.51-5.41-.76,1.38-2.07,3.66-2,5.7-2.11,8.67-.34,14.69-3.83,17.14-12.75C395.21,443.17,397.12,438.23,398,433Z" transform="translate(-123.19 -277.21)"/><path class="cls-2" d="M364.26,529.83c.71,3.88.85,7.69-1.31,11.23l-.12-2.29c0-2.43.76-4.88-3.36-5-11.91-.42-23.8-1.26-35.69-1.93-1.75-2.18-.53-4.72-.88-7.07l3.29-.45.25.08.24-.13c1.46.12,2.51-.27,2.46-2l1.76-.73,5,.26c.56,1.66-.86,4,1.11,5,4,2,8.42,1.46,12.58,1,2.94-.33,1.66-3.85,2.61-5.79h.43c-.44,6,3,7.61,8.23,7.23A14.08,14.08,0,0,1,364.26,529.83Z" transform="translate(-123.19 -277.21)"/><path class="cls-8" d="M257,445.16c-.46-4.35-5.26-4.72-7.15-7.79-.73-1.19-2.68-2.12-1.4-3.71,1-1.25,2.65,0,3.61.49,9.14,5,18.76,5.83,28.8,3.76-.33,2-.65,4-1,6l0-.05c-1.85,2.91-3.71,5.8-7.42,6.64-4.23.16-7.64-1.93-11.06-4C260.06,445.63,258.9,444.16,257,445.16Z" transform="translate(-123.19 -277.21)"/><path class="cls-8" d="M362.83,538.77l.12,2.29c-1.53,4.38-5.48,3.3-8.7,3.88l-34.43-.13c-1.14-.76-.91-1.93-.92-3,2.07-.58,1.94-3.39,4-4C336.24,537.53,349.5,539.7,362.83,538.77Z" transform="translate(-123.19 -277.21)"/><path class="cls-7" d="M272.49,450.48c3.71-.84,5.57-3.73,7.42-6.64-1.94,12.3-5.8,24.14-8.58,36.24-1.75,7.58-3.56,15.14-5.35,22.72-2.14-1.64-1.38-4-1.23-6,.66-8.6,1.52-17.19,2.31-25.78Z" transform="translate(-123.19 -277.21)"/><path class="cls-5" d="M232.91,453.91c.29.55.49,1.52.88,1.6,6.08,1.31,10.48,5.16,14.57,9.49a10.05,10.05,0,0,1-5.47,7.29c-1.61.86-3.37,1.74-5,.25-1.47-1.3-1.15-3.14-.6-4.65,1.17-3.25,3.17-6.17-2.19-7.95-6.44-2.15-10.21-1.59-12.93,3.16-.55,1-1.12,1.71-2.26,1.39a5.07,5.07,0,0,1-3.3-2.82c-.77-1.68-.27-3.23.47-4.76a6.21,6.21,0,0,0,4.58-2.75l3.28-.42c1.66,1.63,3.35,1.61,5,.05Z" transform="translate(-123.19 -277.21)"/><path class="cls-6" d="M369.6,388a308.86,308.86,0,0,0-4.24-68,263.53,263.53,0,0,0-9.49-38.52c3.63,2.79,4.27,7.14,5.34,11.08a304.09,304.09,0,0,1,9.62,51.57q.68,10,1.37,20Q371.6,377.06,371,390q-.15,2.92-.32,5.84l-.81.1Z" transform="translate(-123.19 -277.21)"/><path class="cls-2" d="M223.88,400.67c.82-2.87,3.31-1.55,5-1.85,4.52-.8,9.08-1.36,13.64-1.82,2.1-.22,4.8-.52,5.74,1.73.77,1.82-1,3.72-2.16,5.25-2.77,3.68-5.7,7.24-8.67,10.76-1,1.2-1.78,2.35-1.52,4-2.83-.11-3.15-1.42-2.25-3.91,3.75-10.38,3.69-10.4-7.49-13.3C225.41,401.29,224.65,401,223.88,400.67Z" transform="translate(-123.19 -277.21)"/><path class="cls-6" d="M224.89,453.74l-3.28.42c.42-5.36,3.11-10.05,4.39-15.15.34-1.38,2.17-3-.18-4.26a5.68,5.68,0,0,1,4.09-2.84c1.69,1.41,5.27,1.27,4.05,5-1.94,3.85.47,7.3,1,10.93l-2.07,6.05-3-.12A4.13,4.13,0,0,0,224.89,453.74Z" transform="translate(-123.19 -277.21)"/><path class="cls-11" d="M339,501.4c5,1,10.64-1.52,15,2.81,4-2.7,8.32-.93,12.52-.83,3,.08,4.1,1.66,3.77,4.49-.13.66-.27,1.31-.41,2a92.61,92.61,0,0,0-15-1.09c-.34-1.07-.45-2.74-2-.77-5.2-.47-10.52.63-15.62-1.18l.78-4.71Z" transform="translate(-123.19 -277.21)"/><path class="cls-6" d="M241.06,420.83c2.83.5,4.05-1.85,5.75-3.29,6.65-5.68,11.45-6.69,17.95-3.24a94.81,94.81,0,0,0-15.42,7.83,39.53,39.53,0,0,0-8.55,7.51c-1.07,1.26-1.55,4-3.83,3.07-2.06-.83-.49-3.33-1.11-5l0,.12c.79.07,1.07-.35,1.05-1.07l-.06.07c.73,0,1-.42,1.1-1.08Z" transform="translate(-123.19 -277.21)"/><path class="cls-10" d="M354.88,508.75a92.61,92.61,0,0,1,15,1.09c-.08,3.72.81,7.51-.79,11.12-1.93-.06-3.45-.21-4.79-2.31-1.06-1.67-3.79-3.8-5.43.21l0,0c-4.51.92-5.55,0-4.93-4.39C354.2,512.54,354.56,510.65,354.88,508.75Z" transform="translate(-123.19 -277.21)"/><path class="cls-10" d="M364.26,529.83a14.08,14.08,0,0,0-3.39-.61c-5.26.38-8.67-1.2-8.23-7.23,1.59-2,5.42.41,6.22-3.16l0,0c1.91,0,4-.33,5,1.95s3,2.09,4.94,2C368.89,526.17,369.32,529.75,364.26,529.83Z" transform="translate(-123.19 -277.21)"/><path class="cls-5" d="M319.81,544.81l34.44.13-2.47,2.85-26.85.15C322.76,547.66,320.05,548.26,319.81,544.81Z" transform="translate(-123.19 -277.21)"/><path class="cls-9" d="M354.44,280.2c-3.75-1.61-4.95-.53-4.86,3.64.22,10.11-.3,20.2-2.76,30.08a3.86,3.86,0,0,1-1,0l-.18-1.41A155.89,155.89,0,0,0,347,282.16a4.18,4.18,0,0,1,3.42-4.77C352.6,276.85,354.39,277.45,354.44,280.2Z" transform="translate(-123.19 -277.21)"/><path class="cls-3" d="M225.82,434.75c2.35,1.3.52,2.88.18,4.26-1.28,5.1-4,9.79-4.39,15.15a6.21,6.21,0,0,1-4.58,2.75C218.92,449.11,220.6,441.23,225.82,434.75Z" transform="translate(-123.19 -277.21)"/><path class="cls-12" d="M263.27,486.9a6.26,6.26,0,0,1,.54,4.84c-1.7,8.08.25,16.12.05,24.17-2-.79-1.78-2.57-1.85-4.2A106.8,106.8,0,0,1,263.27,486.9Z" transform="translate(-123.19 -277.21)"/><path class="cls-12" d="M368.75,522.77c-1.95.13-3.93.29-4.94-2s-3.06-2-5-1.95c1.64-4,4.37-1.88,5.43-.21,1.34,2.1,2.86,2.25,4.79,2.31C369,521.57,368.85,522.17,368.75,522.77Z" transform="translate(-123.19 -277.21)"/><path class="cls-7" d="M187.17,315.73a1.66,1.66,0,0,1-2.31-.58A1.87,1.87,0,0,1,187.17,315.73Z" transform="translate(-123.19 -277.21)"/><path class="cls-3" d="M237.91,425.78c-.08.66-.37,1.09-1.1,1.08C236.64,426,237.38,426,237.91,425.78Z" transform="translate(-123.19 -277.21)"/><path class="cls-3" d="M236.87,426.79c0,.72-.26,1.14-1.05,1.07C235.79,427.13,236,426.63,236.87,426.79Z" transform="translate(-123.19 -277.21)"/><path class="cls-7" d="M271.6,600.73a5.69,5.69,0,0,1,.32.87c0,.11-.17.26-.26.4A.75.75,0,0,1,271.6,600.73Z" transform="translate(-123.19 -277.21)"/><path class="cls-4" d="M411.88,382c3.23,8.18,4.26,16.9,5.58,25.46a9.37,9.37,0,0,1-6.65,10.41,14.92,14.92,0,0,0,.17-8.61c-1.43-6-3.32-12-3.15-18.31,0-.35,0-.7,0-1C409.89,387.65,410.93,384.86,411.88,382Z" transform="translate(-123.19 -277.21)"/><path class="cls-1" d="M370.66,395.81q.16-2.91.32-5.84c.17,0,.41,0,.48.1,3.27,4.25,3.33,23.75.11,27.62a8.91,8.91,0,0,1-4.18,2.53,123.24,123.24,0,0,1-36.93,6.7C315.62,427.41,302,423,289,416.43a11.25,11.25,0,0,1-4.9-14.71c1,1.55.62,3.34.91,5,1.46,7.09,4.4,9.45,12.84,10.28a6,6,0,0,0,3.45,1.82,126.32,126.32,0,0,0,52.66.75c2.72-.56,6-.78,7.89-3.62,3.89-1,7-2.93,7.84-7.23C370.26,404.44,371.35,400.19,370.66,395.81Z" transform="translate(-123.19 -277.21)"/><path class="cls-4" d="M408.82,418.88c-4.85,3.15-10.06,2.53-15.14,1-3.89-1.14-5.33-3.84-4-8,1.7-5.48,3.28-11,3.26-16.85,3.5,1.39,6.75.47,9.91-1.13C403.88,402.46,404.12,411.21,408.82,418.88Z" transform="translate(-123.19 -277.21)"/><path class="cls-9" d="M270.91,415.41c-1.17-2-3.91-2.78-4-5.52,4.54,1.85,7.59,5.72,11.49,8.46,13.31,9.31,27.68,15.23,44.05,16.75a109.59,109.59,0,0,0,45.42-5.63c2-.66,3.86-2.15,6.17-1.12h-.13a32.47,32.47,0,0,1-3.78,2.35,89.45,89.45,0,0,1-42.07,7.49,94,94,0,0,1-43.82-13.1c-4.27-2.52-7.67-6.28-12.3-8.23v0Z" transform="translate(-123.19 -277.21)"/><path class="cls-7" d="M408.82,418.88c-4.7-7.67-4.94-16.42-6-25,1.77-.82,2.77-2.93,5-3-.17,6.31,1.72,12.29,3.15,18.31a14.92,14.92,0,0,1-.17,8.61A2.2,2.2,0,0,1,408.82,418.88Z" transform="translate(-123.19 -277.21)"/><path class="cls-4" d="M295.6,424.42c19.69,6.57,39.75,8.56,60.28,4.78C335.17,435.28,315.06,433.86,295.6,424.42Z" transform="translate(-123.19 -277.21)"/><path class="cls-4" d="M386.85,402.3c.1,4.05-2.43,7.28-3.47,11-.16.58-1.11.22-1.53-.38.48-6.22-1.5-12.1-2.54-18.12-.62-3.61-.84-7.15,2.2-9.95Z" transform="translate(-123.19 -277.21)"/><path class="cls-6" d="M386.85,402.3l-5.34-17.47a6.68,6.68,0,0,1,5.26-5.71C391,386.84,390.7,394.56,386.85,402.3Z" transform="translate(-123.19 -277.21)"/><path class="cls-6" d="M373.9,428.35H374c2.31-1.92,2.09-4.82,2.84-7.34,1.69,1.11,1.51,3,1.8,4.61l-3,7.57-.6-3.2A1.34,1.34,0,0,0,373.9,428.35Z" transform="translate(-123.19 -277.21)"/><path class="cls-7" d="M285,406.73c-.29-1.67.08-3.46-.91-5l-.09-5.88,1.67,0C285.67,399.46,286.9,403.19,285,406.73Z" transform="translate(-123.19 -277.21)"/><path class="cls-9" d="M262.93,407.94l-1.07-1.06v-2a8.5,8.5,0,0,1,4.05,4h-1.74Z" transform="translate(-123.19 -277.21)"/><path class="cls-4" d="M359.52,428l.35.6c-.15.05-.32.18-.44.14a5.45,5.45,0,0,1-.76-.39Z" transform="translate(-123.19 -277.21)"/><path class="cls-9" d="M259.9,403c-.89.12-1.63,0-1.9-1C258.8,402,259.58,402,259.9,403Z" transform="translate(-123.19 -277.21)"/><path class="cls-4" d="M291.88,422.91l1.32.35c-.74.93-1,.05-1.31-.37Z" transform="translate(-123.19 -277.21)"/><path class="cls-4" d="M291.89,422.89l-1.31-.36c.74-.91.95,0,1.3.38Z" transform="translate(-123.19 -277.21)"/><path class="cls-9" d="M261.88,405c-.7,0-1-.35-1-1Z" transform="translate(-123.19 -277.21)"/><path class="cls-9" d="M266.91,409.91l-1-1Z" transform="translate(-123.19 -277.21)"/><path class="cls-9" d="M260.89,404a.94.94,0,0,1-1-1Z" transform="translate(-123.19 -277.21)"/><path class="cls-4" d="M339,501.4l-.9.69c-1.13-2.56-3.42-2.22-5.57-2.22-7.72,0-15.52,1.17-23.12-.51-3.55-.79-5.9-.32-7.91,2.52l.15-1.39-.19-.43-.69-1.1c3.39-7.77.63-15.88-6.75-19-5.15-2.19-8.64-5.07-6.5-11.28.73-2.16-2.07-2.36-2.1-4,.92-1.21,2.42.83,3.13-.59.91-1.81-.92-2.18-1.82-3a4.64,4.64,0,0,1-1.4-5.58c1.73,4,4.65,5.86,8.74,6.63,7.76,1.45,15.14,4.75,23.23,4.77,2.58,0,4.54-.7,5.65-3.14l3,.19a6.57,6.57,0,0,0,5.53,3.78q12,.18,23.89-.25c4.11-.15,7.72-1.72,9.9-5.74.91,3.89-2.18,5.23-4.41,6.77-1.26,1.75,4.54.37,1,3.78s2.77.1,2.06,2.74a8,8,0,0,0-3.5,4.1c-1.24,3.25-4.79,4.28-8.21,4.7-6,.74-9.34,4-10.32,10-.3,1.82-.61,3.68-3,4,.18-2.38,2.91-5.86-1.13-6.67s-8.09-1.75-12.3-1.38c-2.64.23-3.25,1.95-3.48,4-.25,2.33.69,3.51,3.19,4.09a29.14,29.14,0,0,0,13.74-.1Zm4.89-21.54c3.76,4.16,8.11,2.65,12.12.85,4.42-2,3.26-6.33,2.56-9.67s-3.95-2.19-6.29-1.78c-7.1,1.24-14.62,1.81-21.23.11-5.16-1.33-9.53-1.05-14.48-.65-7.37.6-14.17-2.91-21.29-4.26-1.64-.31-3.24-1.23-4.42.69-2,3.25-3.22,6.77-.81,10.2s7.14,3.91,10.88,1.51c0,9.51.46,10,10.09,10h6c3.57,0,4.93-1.94,5-5.35,0-3.6-1.26-5.72-5.14-5.69-4.3,0-8.6,0-12.9,0,1.53-1.88,3.67-1.78,5.83-2,6.58-.78,12.85,2,19.52,1.35,2.62-.25,6.35-.06,8.65,2.68-3.16.18-6.14-1-9.31-1.16-4.4-.2-4.73,2.72-5.35,5.6-.65,3.05,1.09,4.78,3.8,5.38a32.87,32.87,0,0,0,7.31,1.23C342.08,488.89,343.31,487.83,343.85,479.86Zm-32.09,9a31.06,31.06,0,0,0-4,0c-1.75.23-4.35-1.11-4.78,2-.39,2.79.91,4.74,3.6,5.8,3.17,1.26,6.46,1.24,9.78,1.2,3.86-.05,4-3.17,4.22-5.6s-1.76-3.66-4.36-3.45C314.75,488.94,313.25,488.84,311.76,488.84Z" transform="translate(-123.19 -277.21)"/><path class="cls-1" d="M306.31,458.23a1.11,1.11,0,0,0-.87-.32c-1.34-3.18-3.46-6.21-1.84-9.94,3.34-2.84,7.48-3.3,11.58-3.89-1.09,3.15.6,4.59,3.33,5.32,2.9.78,4.31-.52,4.8-3.35.15-.87.32-2.69,2-.77,1.24,1.42,2.69-.61,4.08-.21.74,4.84,2.67,6.29,6.06,5,2.77-1,1.33-3.53,2.26-5.16a35.77,35.77,0,0,1,10.33,5c1.52,3,.39,6-.24,9l.09-.08c-1.38-.74-2.29-.15-3,1.07-1.32,1.33-3.17,1.4-4.81,2-.37-1.61,2-5-1.19-4.55-4.45.69-10-2.63-13.28,3.37-2.4-2.83-4.31-6.28-8.58-3.8L309,459l-2.55-.43Z" transform="translate(-123.19 -277.21)"/><path class="cls-5" d="M373.9,428.35a1.34,1.34,0,0,1,1.17,1.64c-26.91,14.6-54.19,14.31-81.8,2.12-2.71-1.2-5.07-3.31-8.27-3.23a5.53,5.53,0,0,0-3-2.88c-3.64-2.73-8.53-4.08-10.05-9.14,4.63,1.95,8,5.71,12.3,8.23a94,94,0,0,0,43.82,13.1,89.45,89.45,0,0,0,42.07-7.49A32.47,32.47,0,0,0,373.9,428.35Z" transform="translate(-123.19 -277.21)"/><path class="cls-10" d="M309,459l8.11-2.11c4.27-2.48,6.18,1,8.58,3.8,3.26-6,8.83-2.68,13.28-3.37,3.18-.49.82,2.94,1.19,4.55-4.43,2.8-9.48,1.43-14.23,2.1l-3-.19c-3.36-.74-6.77-1.35-10.08-2.29C311.39,461.09,309.39,461.14,309,459Z" transform="translate(-123.19 -277.21)"/><path class="cls-10" d="M337.7,444.94c-.93,1.63.51,4.14-2.26,5.16-3.39,1.26-5.32-.19-6.06-5-1.39-.4-2.84,1.63-4.08.21-1.67-1.92-1.84-.1-2,.77-.49,2.83-1.9,4.13-4.8,3.35-2.73-.73-4.42-2.17-3.33-5.32l-.28,0c1,.15.75-.68,1-1.15C323.25,442.58,330.67,441.66,337.7,444.94Z" transform="translate(-123.19 -277.21)"/><path class="cls-12" d="M283,518c-.38-.87.57-2.7-1.52-2.34a2.85,2.85,0,0,1-3.36-1.4c-1.51-2.72-3.17-3.22-5.24-.53-1.24,1.61-2.77,1.38-4.42.58,5.75-4.3,5.69-4.2,11.14-1,2.19,1.3,3.94.31,4.2-2.25.29-2.79.22-5.61.31-8.41l1.37,0a.79.79,0,0,1,.48.38,18.94,18.94,0,0,0-1,8.82c.18,2.18,1.28,3.79,3.46,1.78,3-2.74,5.42-2.73,7.71.67a2.46,2.46,0,0,0,2.94,1.28c1.52-.49,1.78-1.79,1.83-3.19.09-2.65.21-5.3.32-7.95a.94.94,0,0,1,.73.52l0,14.6-2,.34c-2.07-6-9.73-7.06-15.85-2.09Z" transform="translate(-123.19 -277.21)"/><path class="cls-11" d="M284,502.49c-5.16,1.1-10.17-1.25-15.31-.65-.74-4.54.87-6.46,5.61-5.3a17.09,17.09,0,0,0,4.9.33C283.26,496.66,284.89,498.44,284,502.49Z" transform="translate(-123.19 -277.21)"/><path class="cls-11" d="M301.61,500.49l-.15,1.39-.51,2a87.65,87.65,0,0,1-15-.89.79.79,0,0,0-.48-.38c-.14-3.88,1.41-5.62,5.53-4.81,3.2.62,6.49.78,9.74,1.15l.69,1.1A.29.29,0,0,0,301.61,500.49Z" transform="translate(-123.19 -277.21)"/><path class="cls-4" d="M280.91,481.84a2.79,2.79,0,0,1,2.69,3,40.48,40.48,0,0,1-1.67,9.35c-1.7-4-.68-8.24-1.06-12.33Z" transform="translate(-123.19 -277.21)"/><path class="cls-10" d="M303.6,448c-1.62,3.73.5,6.76,1.84,9.94C300,454.41,299.41,451.47,303.6,448Z" transform="translate(-123.19 -277.21)"/><path class="cls-4" d="M362.86,488.88c-1.24,3.31-.65,7.27-3.82,9.92,1.62-3.2-1-7.86,3.79-10Z" transform="translate(-123.19 -277.21)"/><path class="cls-10" d="M347.79,458.89c.63-3,1.76-5.93.24-9C352.4,453,352.32,455.76,347.79,458.89Z" transform="translate(-123.19 -277.21)"/><path class="cls-9" d="M282,426a5.53,5.53,0,0,1,3,2.88c-1.62,2.05-1.72,4.57-2.18,7l-.93,0Z" transform="translate(-123.19 -277.21)"/><path class="cls-4" d="M281.89,435.89l.93,0c-.92,2.7-.5,5.89-2.95,8,.33-2,.65-4,1-6A2.23,2.23,0,0,1,281.89,435.89Z" transform="translate(-123.19 -277.21)"/><path class="cls-4" d="M280.87,481.88c-1.66-.94-2.5-2.35-2.53-4.95a4.92,4.92,0,0,1,2.57,4.91Z" transform="translate(-123.19 -277.21)"/><path class="cls-10" d="M344.92,459.88c.67-1.22,1.58-1.81,3-1.07C347.36,460.46,346,459.67,344.92,459.88Z" transform="translate(-123.19 -277.21)"/><path class="cls-4" d="M283.65,462.81l-.12.34-.39-.39.29-.26Z" transform="translate(-123.19 -277.21)"/><path class="cls-4" d="M284.86,469.13l.33.15-.47.36c-.05-.1-.18-.23-.15-.3S284.75,469.2,284.86,469.13Z" transform="translate(-123.19 -277.21)"/><path class="cls-10" d="M306.31,458.23l.09.34Z" transform="translate(-123.19 -277.21)"/><path class="cls-4" d="M363.86,487.87l-1,1,0,0,1-1Z" transform="translate(-123.19 -277.21)"/><path class="cls-1" d="M315.88,442.9c-.23.47,0,1.3-1,1.15Z" transform="translate(-123.19 -277.21)"/><path class="cls-4" d="M363.83,487.85l1-1,0,0-1,1Z" transform="translate(-123.19 -277.21)"/><path class="cls-4" d="M364.83,486.85l.43-.41-.4.43Z" transform="translate(-123.19 -277.21)"/><path class="cls-1" d="M295.36,343.53c-.47,1.56-.78,3.2-2.22,4.3-5.76-14.06-1-59.26,7.33-67.1,1.29,11.66.06,23.48,5.66,34.07.06.65.13,1.3.2,1.94-1.56,2.33-3.25,4.57-4.63,7C298.19,329.86,295.2,336.2,295.36,343.53Z" transform="translate(-123.19 -277.21)"/><path class="cls-7" d="M302.82,347.84c-.22-4.58,2.83-8.39,3-12.87,5.46,1.88,7.55,7,10.6,11.14,3.63,5,5.86,11.27,12.67,13.16-.06,1.83-.11,3.66-.17,5.5-5.31-.38-8.28-4.35-11.49-7.76C313.35,352.64,309.1,348.67,302.82,347.84Z" transform="translate(-123.19 -277.21)"/><path class="cls-6" d="M329,364.77c.06-1.84.11-3.67.17-5.5,4.47-.64,5.84-4.53,7.87-7.64,3.05-4.71,5.42-9.82,9.41-14,2.57-2.67,4.43-3,6.44.29-.07,3.5,2.52,6.46,2.05,10a14.66,14.66,0,0,0-9,2.26c-3.68,2.44-5.94,6.22-8.84,9.39C334.79,362.09,332.76,364.81,329,364.77Z" transform="translate(-123.19 -277.21)"/><path class="cls-13" d="M295.36,343.53c-.16-7.33,2.83-13.67,6.34-19.81,1.38-2.41,3.07-4.65,4.63-7,2,3,1.5,11.88-.9,15.17-.69.94-1.58,1.71-1.59,3Q299.6,339.21,295.36,343.53Z" transform="translate(-123.19 -277.21)"/><path class="cls-13" d="M345.86,314a3.86,3.86,0,0,0,1,0c3.47,6.72,8.79,12.4,11,19.84.53,1.77,1.22,3.42.92,5.3l-2-1.05a5.71,5.71,0,0,0-2.88-3.32C344.77,330.21,346,321.82,345.86,314Z" transform="translate(-123.19 -277.21)"/><path class="cls-7" d="M356.76,338l2,1.05c.69,1.65,1.37,3.31,2.06,5,.65,2.32,1.33,4.63,1,7.08l-6.92-3.1c.47-3.58-2.12-6.54-2.05-10Z" transform="translate(-123.19 -277.21)"/><path class="cls-14" d="M299.92,519.87l2-.34,5,.35a.92.92,0,0,0,.76.39c0,2,.44,3.46,2.91,3.46,1.77,0,3.54.31,5.3.48.15,6,2.32,11.66,3,17.57,0,1.1-.22,2.27.92,3,.23,3.45,2.94,2.85,5.11,3.13-.65,4.73,2.69,8.86,2.08,13.58l-49.95,1.41q-.68-7-1.33-14c12.58.08,25.1-1.76,37.7-1.14a18.88,18.88,0,0,0,2,0c2.29-.09,2.74-1.13,1.15-2.71-3.62-3.59-6.89-7.45-11.88-9.54-10.52-4.4-21.45-5-32.59-4.67-.08-2.67-.15-5.34-.23-8a52.58,52.58,0,0,1,5.89,0c3.84.45,5.57-1.1,5.22-4.95l1.09-.18c-.65,4.72,1.5,6.63,6.13,6.25a26.8,26.8,0,0,1,4.9.2C298.37,524.56,300.15,523.35,299.92,519.87Z" transform="translate(-123.19 -277.21)"/><path class="cls-14" d="M295.82,571.06c3.79-2.56,8-.9,12-1.11,3.75-.19,8.69-1.74,11,.71,2,2.16-.44,6.76-.94,10.29-1.92,13.62-1.9,13.64-15.58,13.81-6.15.07-12.3,0-18.45.13-3.4.09-4.57-.94-3.49-4.41.58-1.85.44-3.93.63-5.91,5.08,3.84,10.76,5.87,17.14,5.17,3.82-.43,7.12-2.1,8.24-6.14,1.05-3.76-1.18-6.39-3.88-8.46A69.06,69.06,0,0,0,295.82,571.06Z" transform="translate(-123.19 -277.21)"/><path class="cls-15" d="M295.82,571.06a69.06,69.06,0,0,1,6.72,4.08c2.7,2.07,4.93,4.7,3.88,8.46-1.12,4-4.42,5.71-8.24,6.14-6.38.7-12.06-1.33-17.14-5.17.17-1.13.33-2.26.51-3.39C283.41,569.18,283.41,569.18,295.82,571.06Z" transform="translate(-123.19 -277.21)"/><path class="cls-5" d="M235,447.86c-.55-3.63-3-7.08-1-10.93,2.65,7.08,7.15,11.71,16.52,10.91-3.86,4.12-7.29,3.53-10.63,2.26C238.2,449.48,236.89,448,235,447.86Z" transform="translate(-123.19 -277.21)"/><path class="cls-5" d="M262.93,407.94l1.24,1Z" transform="translate(-123.19 -277.21)"/><path class="cls-5" d="M270.91,415.41l1,1.48Z" transform="translate(-123.19 -277.21)"/><path class="cls-13" d="M354.89,348l6.92,3.1c1.58,10.43,2.64,20.82-2.05,30.83-2.3,2.59-3.09,5.83-4,9-3.32-2-7-.55-10.44-1l-5.51,0c-1.18-6.84-5.28-12.06-9.46-17.34-.49,5.72-.43,11.29-.52,16.86,0,1.59,1,2.33,1.91,3.26-1.31.35-2.62.82-4,.37l-1.15-22.75a153.84,153.84,0,0,0-9,17c-1,2.07.69,2.57,1.35,3.72l-8.63-.1-1.16.26-4.22.72c-.73-1.14-1.84-1-2.95-.89l-.94-1.09-1.18-2.07,0,0-1-1,0,0c.05-2.51-.67-4.64-3-6v0a50.85,50.85,0,0,1-3.14-19.21c.36-9.87.8-10.89,10-13.92,6.28.83,10.53,4.8,14.64,9.17,3.21,3.41,6.18,7.38,11.49,7.76,3.81,0,5.84-2.68,8.08-5.12,2.9-3.17,5.16-6.95,8.84-9.39A14.66,14.66,0,0,1,354.89,348Zm-38,20.29a.83.83,0,0,1-.35-.39c-3.16-4.23-8.31-5-12.36-2l-.27.24c-1.56.44-1,1.62-.92,2.62-1.18.09-2-.4-2.05-1.62-.2-2.49-1.55-2.05-3.05-1.22s-2.21,1.72-1,3.52c3.8,5.61,17.11,8.59,22.75,4.93,1.1-.72,2.34-1.6,2-3.15-.4-1.93-2.16-.95-3.31-1.3l-.71-.83C317.76,368.52,317.5,368.24,316.88,368.29Zm19,4.62v-.08A3.46,3.46,0,0,0,338.4,375c6.16,2.26,11.59.81,16.57-3.1,1.92-1.5,4.53-2.81,3.65-5.78-.83-2.8-3.47-3.14-6.05-3.11-6.75-2.57-12,0-16.64,4.81C333.45,369.49,332.87,371.2,335.91,372.91Z" transform="translate(-123.19 -277.21)"/><path class="cls-14" d="M301.05,390l.94,1.09a14.14,14.14,0,0,0-1.29,11.36,116.5,116.5,0,0,0,4.18,11.49,20,20,0,0,0-7,3.11c-8.44-.83-11.38-3.19-12.84-10.28,1.88-3.54.65-7.27.67-10.93.26-6.88,4.13-12.48,6.12-18.75,2.4.77,2.12,3.44,4.12,3.92v0a6.18,6.18,0,0,0,3,6l0,0,1,1,0,0C299.85,388.81,300,389.62,301.05,390Z" transform="translate(-123.19 -277.21)"/><path class="cls-1" d="M402.94,426.52c-4.69,3.34-9.66,3.12-14.69,1.08-2.94-1.19-5.18-3-4.06-7.44C389.44,425.8,396.07,426.17,402.94,426.52Z" transform="translate(-123.19 -277.21)"/><path class="cls-14" d="M355.8,391c.87-3.21,1.66-6.45,4-9,.27.13.72.44.81.36,4-3.76,3.9-3.72,6.28,1.45.7,1.51.5,3.74,2.75,4.3q.12,3.94.25,7.87a18.94,18.94,0,0,0-.15,12.82c-.87,4.3-3.95,6.2-7.84,7.23l-9.06-4A47.64,47.64,0,0,0,355.8,391Z" transform="translate(-123.19 -277.21)"/><path class="cls-8" d="M272.1,530.89c11.14-.36,22.07.27,32.59,4.67,5,2.09,8.26,6,11.88,9.54,1.59,1.58,1.14,2.62-1.15,2.71a18.88,18.88,0,0,1-2,0c-12.6-.62-25.12,1.22-37.7,1.14-1.2.44-2.86,2.88-2.93-.89C272.69,542.34,272.35,536.62,272.1,530.89Z" transform="translate(-123.19 -277.21)"/><path class="cls-10" d="M315.85,524.21c-1.76-.17-3.53-.48-5.3-.48-2.47,0-2.93-1.48-2.91-3.46.94-3.79-1-7.91,1.33-11.53l20.92.22-.75,13.27c.05,1.74-1,2.13-2.46,2,.21-1.39-.2-2.34-1.75-2.46a2,2,0,0,0-2-2c-.47-2.1.55-3.95,1-5.89a2.09,2.09,0,0,0,2-1c.74-.14,1.55-.2,1.5-1.26,0-.11-.2-.31-.31-.31-1-.06-1.16.71-1.27,1.48a2.09,2.09,0,0,0-2,1c-3.79,1.46-4.61,3.41-1,6.11a2,2,0,0,0,2,2l1.38,2.4-3.29.45Zm-2-10.32,1,1L315,519c.7-1.46,1.49-2.94-.14-4.18l-1-1-.51-.4C313.55,513.57,313.69,513.73,313.84,513.89Zm-1,6.9-1.33.46a3.14,3.14,0,0,0,.27.36c.4-.22.77-.48,1.15-.73l.41-.48Zm-1.23-8.69.06-.41-.55.11c.05.12.07.28.16.35S311.49,512.12,311.6,512.1Z" transform="translate(-123.19 -277.21)"/><path class="cls-10" d="M337.28,506.8c5.1,1.81,10.42.71,15.62,1.18,0,2.66,0,5.33,0,8,0,1.54-.06,3.11-1.9,3.63-1.59.46-2.29-.67-3.16-1.78-1.91-2.44-4-3.5-6,0l0,0c-5.41,1.42-4.92-2.82-6-5.9v9.85l0,0-5-.26V507l4,.06c.28.45.57.46.86,0Z" transform="translate(-123.19 -277.21)"/><path class="cls-7" d="M362.83,538.77c-13.33.93-26.59-1.24-39.91-.95.29-2,.57-4,.86-6,11.89.67,23.78,1.51,35.69,1.93C363.59,533.89,362.85,536.34,362.83,538.77Z" transform="translate(-123.19 -277.21)"/><path class="cls-10" d="M352.21,522c-.95,1.94.33,5.46-2.61,5.79-4.16.46-8.61,1-12.58-1-2-1-.55-3.37-1.11-5l0,0c.95-2.9,5.42-.47,6-3.95l0,0c1.65.24,3.83-.92,4.78,1.15C347.8,521.58,350,521.67,352.21,522Z" transform="translate(-123.19 -277.21)"/><path class="cls-1" d="M323.78,531.81c-.29,2-.57,4-.86,6-2.08.57-1.95,3.38-4,4-.73-5.91-2.9-11.57-3-17.57l7,.53C323.25,527.09,322,529.63,323.78,531.81Z" transform="translate(-123.19 -277.21)"/><path class="cls-12" d="M352.21,522c-2.21-.33-4.41-.42-5.59-3-.95-2.07-3.13-.91-4.78-1.15,2-3.54,4.05-2.48,6,0,.87,1.11,1.57,2.24,3.16,1.78,1.84-.52,1.89-2.09,1.9-3.63,0-2.66,0-5.33,0-8,1.53-2,1.64-.3,2,.77-.32,1.9-.68,3.79-.95,5.69-.62,4.4.42,5.31,4.93,4.39-.8,3.57-4.63,1.16-6.22,3.16Z" transform="translate(-123.19 -277.21)"/><path class="cls-12" d="M330.9,507V521.5l-1.76.73.75-13.27.09-2.06.48,0Z" transform="translate(-123.19 -277.21)"/><path class="cls-12" d="M324.93,521.78c1.55.12,2,1.07,1.75,2.46l-.24.13-.25-.08-1.38-2.4Z" transform="translate(-123.19 -277.21)"/><path class="cls-3" d="M224.89,453.74a4.13,4.13,0,0,1,5,.05C228.24,455.35,226.55,455.37,224.89,453.74Z" transform="translate(-123.19 -277.21)"/><path class="cls-9" d="M369.7,408.73a18.94,18.94,0,0,1,.15-12.82l.81-.1C371.35,400.19,370.26,404.44,369.7,408.73Z" transform="translate(-123.19 -277.21)"/><path class="cls-3" d="M330.9,507l-.44-.17-.48,0c-7-1.58-14.1-.91-21.13-1.71l-2-.11-4.91-.15a.94.94,0,0,0-.73-.52.43.43,0,0,0-.24-.52l.51-2c2-2.84,4.36-3.31,7.91-2.52,7.6,1.68,15.4.47,23.12.51,2.15,0,4.44-.34,5.57,2.22l-.78,4.71-1.49.3a.74.74,0,0,0-.86,0Z" transform="translate(-123.19 -277.21)"/><path class="cls-8" d="M352.8,411.91l9.06,4c-1.87,2.84-5.17,3.06-7.89,3.62a126.32,126.32,0,0,1-52.66-.75,6,6,0,0,1-3.45-1.82,20,20,0,0,1,7-3.11c1,.16,1.95.3,2.93.47C323,417,338,416.88,352.8,411.91Z" transform="translate(-123.19 -277.21)"/><path class="cls-3" d="M300.89,476.86c-3.74,2.4-8.46,1.93-10.88-1.51s-1.19-7,.81-10.2c1.18-1.92,2.78-1,4.42-.69,7.12,1.35,13.92,4.86,21.29,4.26,5-.4,9.32-.68,14.48.65,6.61,1.7,14.13,1.13,21.23-.11,2.34-.41,5.6-1.57,6.29,1.78s1.86,7.69-2.56,9.67c-4,1.8-8.36,3.31-12.12-.85l0,0c-1.32-2.74-3.86-1.83-6-2l0,0c-2.3-2.74-6-2.93-8.65-2.68-6.67.64-12.94-2.13-19.52-1.35-2.16.25-4.3.15-5.83,2l0,0c-1.11,0-2.3-.17-3,1Z" transform="translate(-123.19 -277.21)"/><path class="cls-3" d="M303.87,475.88c4.3,0,8.6,0,12.9,0,3.88,0,5.18,2.09,5.14,5.69,0,3.41-1.4,5.34-5,5.35h-6c-9.63,0-10.13-.51-10.09-10l0,0c1.12,0,2.3.14,3-1Z" transform="translate(-123.19 -277.21)"/><path class="cls-3" d="M343.85,479.86c-.54,8-1.77,9-9.53,9.07A32.87,32.87,0,0,1,327,487.7c-2.71-.6-4.45-2.33-3.8-5.38.62-2.88,1-5.8,5.35-5.6,3.17.14,6.15,1.34,9.31,1.16l0,0a9.68,9.68,0,0,0,6,2Z" transform="translate(-123.19 -277.21)"/><path class="cls-3" d="M311.76,488.84c1.49,0,3,.1,4.48,0,2.6-.21,4.55.87,4.36,3.45s-.36,5.55-4.22,5.6c-3.32,0-6.61.06-9.78-1.2-2.69-1.06-4-3-3.6-5.8.43-3.1,3-1.76,4.78-2A31.06,31.06,0,0,1,311.76,488.84Z" transform="translate(-123.19 -277.21)"/><path class="cls-3" d="M338.87,497.85a29.14,29.14,0,0,1-13.74.1c-2.5-.58-3.44-1.76-3.19-4.09.23-2.09.84-3.81,3.48-4,4.21-.37,8.33.59,12.3,1.38s1.31,4.29,1.13,6.67Z" transform="translate(-123.19 -277.21)"/><path class="cls-3" d="M301.61,500.49a.29.29,0,0,1-.19-.43Z" transform="translate(-123.19 -277.21)"/><path class="cls-10" d="M301,503.89a.43.43,0,0,1,.24.52c-.11,2.65-.23,5.3-.32,7.95-.05,1.4-.31,2.7-1.83,3.19a2.46,2.46,0,0,1-2.94-1.28c-2.29-3.4-4.72-3.41-7.71-.67-2.18,2-3.28.4-3.46-1.78a18.94,18.94,0,0,1,1-8.82A87.65,87.65,0,0,0,301,503.89Z" transform="translate(-123.19 -277.21)"/><path class="cls-10" d="M299.92,519.87c.23,3.48-1.55,4.69-4.82,4.36a26.8,26.8,0,0,0-4.9-.2c-4.63.38-6.78-1.53-6.13-6.25C290.19,512.81,297.85,513.82,299.92,519.87Z" transform="translate(-123.19 -277.21)"/><path class="cls-10" d="M301.92,504.93l4.91.15q0,7.41.05,14.8l-5-.35Q301.91,512.22,301.92,504.93Z" transform="translate(-123.19 -277.21)"/><path class="cls-12" d="M306.88,519.88q0-7.39-.05-14.8l2,.11.12,3.55c-2.32,3.62-.39,7.74-1.33,11.53A.92.92,0,0,1,306.88,519.88Z" transform="translate(-123.19 -277.21)"/><path class="cls-16" d="M304.94,391.94l4.22-.72,1.16-.26,8.63.1a21.86,21.86,0,0,0,8.81,2c1.4.45,2.71,0,4-.37a29.46,29.46,0,0,0,8.07-2.78l5.51,0c2.17,1.51,5.55-.12,7.17,2.72,2.79,4.91-2,16.84-7.48,18.33-9.11,2.46-18.42,2.06-27.75,1.88C305.25,412.68,302.1,404.29,304.94,391.94Zm18.8,10.94c5.09,0,10.17,0,15.25-.06,1.23,0,3.28.42,1.82-2.07l-2.87-3.82a1.87,1.87,0,0,0-2.31-2c-5.6.72-11.19,1.47-16.77,2.33a2.8,2.8,0,0,0-2.52,2.66c-.61,2.58-.63,4.8,3,3.54A16.47,16.47,0,0,1,323.74,402.88Z" transform="translate(-123.19 -277.21)"/><path class="cls-5" d="M304.94,391.94c-2.84,12.35.31,20.74,12.36,21,9.33.18,18.64.58,27.75-1.88,5.48-1.49,10.27-13.42,7.48-18.33-1.62-2.84-5-1.21-7.17-2.72,3.47.45,7.12-1,10.44,1a47.64,47.64,0,0,1-3,20.94c-14.77,5-29.8,5.11-45,2.46-1-.17-1.95-.31-2.93-.47a116.5,116.5,0,0,1-4.18-11.49A14.14,14.14,0,0,1,302,391.05C303.1,390.93,304.21,390.8,304.94,391.94Z" transform="translate(-123.19 -277.21)"/><path class="cls-4" d="M327.76,393.08a21.86,21.86,0,0,1-8.81-2c-.66-1.15-2.32-1.65-1.35-3.72a153.84,153.84,0,0,1,9-17Z" transform="translate(-123.19 -277.21)"/><path class="cls-9" d="M339.85,389.93a29.46,29.46,0,0,1-8.07,2.78c-.9-.93-1.94-1.67-1.91-3.26.09-5.57,0-11.14.52-16.86C334.57,377.87,338.67,383.09,339.85,389.93Z" transform="translate(-123.19 -277.21)"/><path class="cls-5" d="M318.35,370c1.15.35,2.91-.63,3.31,1.3.32,1.55-.92,2.43-2,3.15-5.64,3.66-18.95.68-22.75-4.93-1.22-1.8-.54-2.68,1-3.52s2.85-1.27,3.05,1.22c.1,1.22.87,1.71,2.05,1.62l2.84,1.44c.39,1.55,1,2,2.2.55,3.24-.91,6.48,2.45,9.72,0Z" transform="translate(-123.19 -277.21)"/><path class="cls-5" d="M352.57,363c2.58,0,5.22.31,6.05,3.11.88,3-1.73,4.28-3.65,5.78-5,3.91-10.41,5.36-16.57,3.1a3.46,3.46,0,0,1-2.48-2.15c4.36.29,8.31-1.73,12.57-2.14C353.74,370.18,354.68,368.17,352.57,363Z" transform="translate(-123.19 -277.21)"/><path class="cls-4" d="M352.57,363c2.11,5.18,1.17,7.19-4.08,7.7-4.26.41-8.21,2.43-12.57,2.14v.08c0-1.7,0-3.41,0-5.11C340.56,363,345.82,360.42,352.57,363Zm-.27,4.13c-4.79-4.39-9.36-3.4-14.47,3.09Z" transform="translate(-123.19 -277.21)"/><path class="cls-15" d="M318.35,370l-.61.81c-2.94-1.26-6.09-1.5-9.21-2-1.79-.27-4.23.24-4.63-2.63l.27-.24a20.56,20.56,0,0,1,12.36,2,.83.83,0,0,0,.35.39c-.19.68.21.83.76.84Z" transform="translate(-123.19 -277.21)"/><path class="cls-6" d="M303.9,366.18c.4,2.87,2.84,2.36,4.63,2.63,3.12.46,6.27.7,9.21,2-3.24,2.47-6.48-.89-9.72,0a1.69,1.69,0,0,0-2.2-.55L303,368.8C302.93,367.8,302.34,366.62,303.9,366.18Z" transform="translate(-123.19 -277.21)"/><path class="cls-6" d="M316.53,367.9a20.56,20.56,0,0,0-12.36-2C308.22,362.85,313.37,363.67,316.53,367.9Z" transform="translate(-123.19 -277.21)"/><path class="cls-7" d="M298.9,386.92a6.18,6.18,0,0,1-3-6C298.23,382.28,299,384.41,298.9,386.92Z" transform="translate(-123.19 -277.21)"/><path class="cls-5" d="M335.93,367.8c0,1.7,0,3.41,0,5.11C332.87,371.2,333.45,369.49,335.93,367.8Z" transform="translate(-123.19 -277.21)"/><path class="cls-7" d="M301.05,390c-1-.34-1.2-1.15-1.18-2.07C300.27,388.58,300.66,389.27,301.05,390Z" transform="translate(-123.19 -277.21)"/><path class="cls-6" d="M317.64,369.13c-.55,0-.95-.16-.76-.84C317.5,368.24,317.76,368.52,317.64,369.13Z" transform="translate(-123.19 -277.21)"/><path class="cls-7" d="M299.91,387.93l-1-1Z" transform="translate(-123.19 -277.21)"/><path class="cls-5" d="M310.32,391l-1.16.26Z" transform="translate(-123.19 -277.21)"/><path class="cls-11" d="M309,508.74l-.12-3.55c7,.8,14.17.13,21.13,1.71l-.09,2.06Z" transform="translate(-123.19 -277.21)"/><path class="cls-12" d="M322.8,519.91c-3.58-2.7-2.76-4.65,1-6.11l.09.1c-.44,1.94-1.46,3.79-1,5.89Z" transform="translate(-123.19 -277.21)"/><path class="cls-12" d="M314.9,514.81c1.63,1.24.84,2.72.14,4.18l-.21-4.1Z" transform="translate(-123.19 -277.21)"/><path class="cls-12" d="M325.82,512.8c.11-.77.22-1.54,1.27-1.48.11,0,.3.2.31.31.05,1.06-.76,1.12-1.5,1.26Z" transform="translate(-123.19 -277.21)"/><path class="cls-12" d="M322.93,519.79a2,2,0,0,1,2,2l-.12.11a2,2,0,0,1-2-2Z" transform="translate(-123.19 -277.21)"/><path class="cls-12" d="M311.6,512.1c-.11,0-.27.1-.33,0s-.11-.23-.16-.35l.55-.11Z" transform="translate(-123.19 -277.21)"/><path class="cls-12" d="M323.83,513.8a2.09,2.09,0,0,1,2-1l.08.09a2.09,2.09,0,0,1-2,1Z" transform="translate(-123.19 -277.21)"/><path class="cls-12" d="M312.92,520.88c-.38.25-.75.51-1.15.73a3.14,3.14,0,0,1-.27-.36l1.33-.46Z" transform="translate(-123.19 -277.21)"/><path class="cls-12" d="M312.83,520.79l.5-.39-.41.48Z" transform="translate(-123.19 -277.21)"/><path class="cls-12" d="M313.84,513.89l-.44-.47.51.4Z" transform="translate(-123.19 -277.21)"/><path class="cls-12" d="M314.83,514.89l-1-1,.07-.07,1,1Z" transform="translate(-123.19 -277.21)"/><path class="cls-12" d="M341.87,517.83c-.56,3.48-5,1-6,3.95v-9.85C337,515,336.46,519.25,341.87,517.83Z" transform="translate(-123.19 -277.21)"/><path class="cls-12" d="M334.93,507.09a.74.74,0,0,1,.86,0C335.5,507.55,335.21,507.54,334.93,507.09Z" transform="translate(-123.19 -277.21)"/><path class="cls-4" d="M343.87,479.88a9.68,9.68,0,0,1-6-2C340,478.05,342.55,477.14,343.87,479.88Z" transform="translate(-123.19 -277.21)"/><path class="cls-4" d="M303.89,475.86c-.73,1.16-1.91,1-3,1C301.59,475.69,302.78,475.89,303.89,475.86Z" transform="translate(-123.19 -277.21)"/><path class="cls-15" d="M337.94,396.93l2.87,3.82c-1.57,1.33-3.44.63-5.19.77-4,.31-8.07-.47-11.88,1.36a16.47,16.47,0,0,0-4.37.62c-3.66,1.26-3.64-1-3-3.54,1.5,1.29,3.05,2.23,3.6-.68.23-1.21.91-1.28,1.66-1.15C327.15,399.06,332.44,396.57,337.94,396.93Z" transform="translate(-123.19 -277.21)"/><path class="cls-8" d="M337.94,396.93c-5.5-.36-10.79,2.13-16.34,1.2-.75-.13-1.43-.06-1.66,1.15-.55,2.91-2.1,2-3.6.68a2.8,2.8,0,0,1,2.52-2.66c5.58-.86,11.17-1.61,16.77-2.33A1.87,1.87,0,0,1,337.94,396.93Z" transform="translate(-123.19 -277.21)"/><path class="cls-3" d="M323.74,402.88c3.81-1.83,7.91-1.05,11.88-1.36,1.75-.14,3.62.56,5.19-.77,1.46,2.49-.59,2.06-1.82,2.07C333.91,402.88,328.83,402.87,323.74,402.88Z" transform="translate(-123.19 -277.21)"/><path class="cls-13" d="M305.82,370.24a1.69,1.69,0,0,1,2.2.55C306.86,372.28,306.21,371.79,305.82,370.24Z" transform="translate(-123.19 -277.21)"/><path class="cls-15" d="M352.3,367.12l-14.47,3.09C342.94,363.72,347.51,362.73,352.3,367.12Z" transform="translate(-123.19 -277.21)"/></svg>