<svg id="Layer_1" data-name="Layer 1" xmlns="http://www.w3.org/2000/svg" viewBox="0 0 829.2 382.34"><defs><style>.cls-1{fill:#fefefe;}.cls-2{fill:#030303;}.cls-3{fill:#fdfdfd;}</style></defs><path class="cls-1" d="M695,343.18a127.74,127.74,0,0,0-1-19.93c-5.13-34.59-22-61.3-53.07-78.17-15.75-8.53-32.93-12.41-50.68-13.59-38.71-2.58-74.92,4.35-106.28,28.84-2.21,1.72-3.36,1.53-5.3-.29-11.38-10.63-24.82-17.66-39.63-22.3-16.2-5.08-32.85-6.89-49.71-7.28-31.35-.73-61.26,4.89-88.73,20.67-2.53,1.45-4,1-6-.58a99.6,99.6,0,0,0-44.5-18.89c-13.59-2.29-27.24-2.07-40.88-1.61-31.26,1-61.21,6.64-86.54,26.89-1.69,1.35-2.35,1-3.28-.69-6.74-12.32-17.93-18.21-31-21.42-12.75-3.14-25.71-3.53-38.72-2.93a98,98,0,0,0-46.3,14c-18.78,11.2-31.62,27.74-42.07,46.43a766.72,766.72,0,0,0-65,152.24c-7.76,25.68-14.34,51.74-13.2,78.88,1.57,37.09,19,64.64,53.64,78.24,42.22,16.6,83.85,11.61,123.58-9.81,2.69-1.45,4.4-1.76,6.94.12a69.68,69.68,0,0,0,16.13,8.88c47.68,18.54,93.47,13.84,137.43-11.61,2.67-1.55,4.19-1.77,6.82.15,19.8,14.5,42.34,21.32,66.62,22.38,41.64,1.81,78.75-10.33,110.85-37.11,2.29-1.91,3.21-1.5,4.95.54a90.87,90.87,0,0,0,36.28,25.73c32.86,13,66.49,14,100.43,5.23s59.27-29.91,79.56-57.71c20.58-28.19,34.54-59.68,46.24-92.35C685.59,419.54,695,382.3,695,343.18Zm17.1-91.83a21.11,21.11,0,1,0-21.39,20.9A20.79,20.79,0,0,0,712.1,251.35Z" transform="translate(117.1 -229.75)"/><path class="cls-2" d="M695,343.18c0,39.12-9.41,76.36-22.5,112.91-11.7,32.67-25.66,64.16-46.24,92.35-20.29,27.8-45.6,48.9-79.56,57.71s-67.57,7.75-100.43-5.23A90.87,90.87,0,0,1,410,575.19c-1.74-2-2.66-2.45-4.95-.54-32.1,26.78-69.21,38.92-110.85,37.11-24.28-1.06-46.82-7.88-66.62-22.38-2.63-1.92-4.15-1.7-6.82-.15-44,25.45-89.75,30.15-137.43,11.61A69.68,69.68,0,0,1,67.19,592c-2.54-1.88-4.25-1.57-6.94-.12-39.73,21.42-81.36,26.41-123.58,9.81-34.6-13.6-52.07-41.15-53.64-78.24-1.14-27.14,5.44-53.2,13.2-78.88a766.72,766.72,0,0,1,65-152.24c10.45-18.69,23.29-35.23,42.07-46.43a98,98,0,0,1,46.3-14c13-.6,26-.21,38.72,2.93,13.08,3.21,24.27,9.1,31,21.42.93,1.68,1.59,2,3.28.69,25.33-20.25,55.28-25.84,86.54-26.89,13.64-.46,27.29-.68,40.88,1.61a99.6,99.6,0,0,1,44.5,18.89c2.07,1.57,3.5,2,6,.58,27.47-15.78,57.38-21.4,88.73-20.67,16.86.39,33.51,2.2,49.71,7.28,14.81,4.64,28.25,11.67,39.63,22.3,1.94,1.82,3.09,2,5.3.29,31.36-24.49,67.57-31.42,106.28-28.84,17.75,1.18,34.93,5.06,50.68,13.59C672,262,688.87,288.66,694,323.25A127.74,127.74,0,0,1,695,343.18ZM112.31,299.62c-.54-1-.81-1.27-.83-1.57-.18-2-.3-4-.44-6-1.14-16.41-9.24-28.45-24.65-33.7-24.69-8.41-49.17-7.27-72.2,6.11C.25,272.58-9.27,285-17,298.79A771.25,771.25,0,0,0-83.95,455.58c-6.65,22.18-12,44.66-11,68.13C-93.84,552-77.11,574.51-50.45,584c15.43,5.48,31.36,5.89,47.35,4.73,24.23-1.75,46.82-8.24,65.21-25.2,2.17-2,3.09-1.16,4.67.41,10.87,10.79,23.74,18.5,38.59,21.85,44,9.93,84.45,3.21,119.6-27.3,16,19,37.43,28.95,62.18,31.15,49.25,4.39,90-12.91,122.37-50.12.67-.77,1-2.06,2.25-2.14.22.21.39.3.45.44.35.75.68,1.51,1,2.27,8.45,19.81,22.51,34.28,42.66,41.73,36.86,13.64,73.3,11.11,108.33-6.26,24.66-12.23,41.9-32.59,55.41-56C643,479,658.16,435.38,667.89,389.79c4.81-22.58,7.56-45.37,3-68.37C664.47,289.09,646.14,267,614,257.89c-29.83-8.4-59.59-7.07-88.73,3.73-18.95,7-34.64,18.82-47.94,34.26-10.06-19.31-25.83-31.92-46.19-37.36-47.53-12.71-93-9.29-133.95,21-1.4,1-2.3,2.12-3.87-.07-9.07-12.64-22.06-19.28-36.55-23.64-18.26-5.48-36.9-4.58-55.52-3.36a140.87,140.87,0,0,0-42.3,8.95A95.2,95.2,0,0,0,112.31,299.62Z" transform="translate(117.1 -229.75)"/><path class="cls-2" d="M712.1,251.35a21.11,21.11,0,0,1-42.21-.11,21.11,21.11,0,1,1,42.21.11Zm-4.11-.16a17,17,0,0,0-34-.24,17,17,0,1,0,34,.24Z" transform="translate(117.1 -229.75)"/><path class="cls-3" d="M112.31,299.62a95.2,95.2,0,0,1,46.63-38.23,140.87,140.87,0,0,1,42.3-8.95c18.62-1.22,37.26-2.12,55.52,3.36,14.49,4.36,27.48,11,36.55,23.64,1.57,2.19,2.47,1.11,3.87.07,41-30.28,86.42-33.7,134-21,20.36,5.44,36.13,18.05,46.19,37.36,13.3-15.44,29-27.23,47.94-34.26,29.14-10.8,58.9-12.13,88.73-3.73,32.15,9.06,50.48,31.2,56.89,63.53,4.57,23,1.82,45.79-3,68.37C658.16,435.38,643,479,619.62,519.51c-13.51,23.43-30.75,43.79-55.41,56-35,17.37-71.47,19.9-108.33,6.26-20.15-7.45-34.21-21.92-42.66-41.73-.32-.76-.65-1.52-1-2.27-.06-.14-.23-.23-.45-.44-1.27.08-1.58,1.37-2.25,2.14C377.12,576.7,336.4,594,287.15,589.61,262.4,587.41,241,577.49,225,558.46c-35.15,30.51-75.57,37.23-119.6,27.3-14.85-3.35-27.72-11.06-38.59-21.85-1.58-1.57-2.5-2.41-4.67-.41-18.39,17-41,23.45-65.21,25.2-16,1.16-31.92.75-47.35-4.73-26.66-9.46-43.39-32-44.55-60.26-1-23.47,4.4-46,11-68.13A771.25,771.25,0,0,1-17,298.79C-9.27,285,.25,272.58,14.19,264.48c23-13.38,47.51-14.52,72.2-6.11,15.41,5.25,23.51,17.29,24.65,33.7.14,2,.26,4,.44,6C111.5,298.35,111.77,298.62,112.31,299.62ZM413.74,524.2c1.31,3.53,2.36,6.3,3.37,9.09,8.13,22.45,23.55,37.57,46.23,44.81,29.29,9.35,58.48,7.79,87.08-2.94,26.86-10.08,45.92-29.53,60.73-53.39,22.21-35.77,36.11-75,46.67-115.47,6.61-25.34,11.23-51,8.21-77.47-3.73-32.8-23.63-57-54.92-65.68-13.93-3.88-28.19-4.84-42.57-4.18-35,1.58-64.52,14.57-87.29,41.74-1.73,2.07-3.16,4.53-6,6.06-9.14-25.1-28.09-38.49-52.74-44.48a158.49,158.49,0,0,0-76.64.27,116.74,116.74,0,0,0-52.48,28.2c-12-22.35-32.63-29.64-55.51-32.37-14.24-1.7-28.63-.81-42.9.67-35.57,3.69-64.23,18.52-82,50.95-1.78,3.25-3.94,6.29-6.55,10.43-.53-10-.91-18.78-1.45-27.52C104.08,278.05,96.12,267.71,82,263c-10.28-3.42-20.91-3.78-31.61-3.23-21.16,1.09-38.28,10.07-51.61,26.47a136.55,136.55,0,0,0-13.58,20.88C-40.71,354.48-62,403.81-77.67,455.46c-6.72,22.14-12.24,44.6-11.29,68.09,1,25.61,15.34,47.18,39.9,54.14C-7.33,589.53,31.58,584.08,65,553.17c20.65,24.56,48.52,32.24,79.72,30.55,30.84-1.67,59-10.12,79.7-34.92a4.51,4.51,0,0,1,1,.65c1.09,1.25,2.17,2.52,3.21,3.82,10,12.44,22.49,21.35,37.75,25.76,42.13,12.16,80.54,3.49,115.66-21.81C394.35,548.38,404.18,537.07,413.74,524.2Z" transform="translate(117.1 -229.75)"/><path class="cls-3" d="M708,251.19a17,17,0,1,1-34-.24,17,17,0,0,1,34,.24Zm-6.55,10.47c-1.51-2.54-2.53-4.87-4.11-6.71s-1.7-2.52.65-3.77,2.81-3.9,2.15-6.57a5.24,5.24,0,0,0-5.07-4.08c-3-.28-6-.06-9-.3-2.62-.21-3.51.73-3.42,3.36.18,4.83,0,9.66.12,14.49.05,1.46-1.34,3.92,1.9,4.1,3.66.21,1.93-2.57,2.39-4.16s-1.28-4,1.32-4.65c2.19-.5,3.63,1.25,4.72,3a11.92,11.92,0,0,1,1.55,2.55C695.67,262.3,697.89,262.77,701.44,261.66Z" transform="translate(117.1 -229.75)"/><path class="cls-2" d="M413.74,524.2c-9.56,12.87-19.39,24.18-31.66,33-35.12,25.3-73.53,34-115.66,21.81-15.26-4.41-27.79-13.32-37.75-25.76-1-1.3-2.12-2.57-3.21-3.82a4.51,4.51,0,0,0-1-.65c-20.74,24.8-48.86,33.25-79.7,34.92-31.2,1.69-59.07-6-79.72-30.55C31.58,584.08-7.33,589.53-49.06,577.69c-24.56-7-38.87-28.53-39.9-54.14-1-23.49,4.57-45.95,11.29-68.09,15.68-51.65,37-101,62.83-148.34A136.55,136.55,0,0,1-1.26,286.24c13.33-16.4,30.45-25.38,51.61-26.47,10.7-.55,21.33-.19,31.61,3.23,14.16,4.71,22.12,15.05,23.05,29.92.54,8.74.92,17.49,1.45,27.52,2.61-4.14,4.77-7.18,6.55-10.43,17.73-32.43,46.39-47.26,82-50.95,14.27-1.48,28.66-2.37,42.9-.67,22.88,2.73,43.54,10,55.51,32.37a116.74,116.74,0,0,1,52.48-28.2,158.49,158.49,0,0,1,76.64-.27c24.65,6,43.6,19.38,52.74,44.48,2.85-1.53,4.28-4,6-6.06C504,273.54,533.57,260.55,568.54,259c14.38-.66,28.64.3,42.57,4.18C642.4,271.85,662.3,296,666,328.83c3,26.49-1.6,52.13-8.21,77.47-10.56,40.46-24.46,79.7-46.67,115.47-14.81,23.86-33.87,43.31-60.73,53.39-28.6,10.73-57.79,12.29-87.08,2.94-22.68-7.24-38.1-22.36-46.23-44.81C416.1,530.5,415.05,527.73,413.74,524.2ZM385.6,395.32c-4.19.25-7.69.37-11.18.67-17.84,1.5-31.27,9.06-37.93,26.71-7,18.62-2.27,27.95,17.3,32,2.49.51,2.52,1.42,2,3.24-3.44,12.38-8.82,23.66-18.59,32.41A33.73,33.73,0,0,1,322,498.5c-12.94,2.92-20.95-3.4-21.13-16.52a58.61,58.61,0,0,1,1.71-14.34c8.76-36.84,22.18-72,38.79-105.95a65.9,65.9,0,0,1,10.82-16.1c6.76-7.27,14.92-10.92,25-9.79,7.1.8,9.79,4.25,8.19,11.13-.78,3.39-2,6.68-2.9,10C379.2,369.22,383.91,377.54,396,381a45.54,45.54,0,0,0,54.84-25.92,76.58,76.58,0,0,0,4.86-17.23c4.52-26.6-6.54-45.05-32.17-53.7a97.65,97.65,0,0,0-23.43-4.72c-26-2.1-51.24.18-74.45,13.45C306.63,303.81,293,320,282.07,338.64c-18.86,32.14-32.53,66.49-42.06,102.47-5.81,21.91-10.74,43.93-8.1,67,3,26.44,19.55,46.2,45.37,52.77,24.09,6.13,47.68,3.65,70.2-6.52,33.25-15,54.21-41.58,67.43-74.73,6.93-17.37,12-35.29,11.08-54.32-.7-14.09-8.31-23.58-21.82-27.71C397.87,395.64,391.4,395.43,385.6,395.32Zm47.62,106.11c.17,2.55.24,7.23.84,11.84,2.81,21.61,13.77,37,34.56,44.8a90.15,90.15,0,0,0,26.81,5.29c27.18,1.55,52.28-3.85,73.47-22.19,11.45-9.91,20.55-21.75,28-34.84a408.49,408.49,0,0,0,38.12-91.2c7.36-25.81,13.32-51.88,11.9-79-1.44-27.46-15.88-46.68-41.43-53.39a112.93,112.93,0,0,0-72.89,4.67c-22.84,9.33-38,27.07-49.38,48.17-15.13,28-25.89,57.82-35.39,88.1C440.12,448.29,434.26,473.34,433.22,501.43Zm-294.7-14.24c.23-1.34.31-2.11.5-2.85,3.11-11.73,6.78-23.27,10.53-34.8,1.18-3.62,2.92-4.05,6.15-3.46a125.12,125.12,0,0,0,31.81,2c23.61-1.73,38.86-15.21,43.21-38.38,2.22-11.83-2.57-20.09-14-24.16-8-2.85-16.32-3-24.65-2.7-6.23.22-12.46.79-19.12,1.24a252.09,252.09,0,0,1,15.17-31.87c1.29-2.29,3-2.08,5-2.1,10-.06,20,.05,30-.41,14-.65,27.48-3.25,38.67-12.55,20.78-17.27,16.36-45.3-8.62-55a57.56,57.56,0,0,0-7.13-2.2c-16.5-3.95-33.14-2.54-49.69-.82-23.74,2.46-43.48,12.74-58.43,31.65a142.21,142.21,0,0,0-12.89,19c-17.35,31.17-30.54,64.1-41,98.14C76.29,453,69.84,478.54,70.11,505.11c.24,24.33,11.43,42.56,34,51.68,32.1,13,63.31,8.45,92.58-9.25,9.85-6,16-15.31,18.92-26.61,5.5-21.47-3.11-34.79-24.88-38.31-8.77-1.41-17.59-.95-26.4-.21C155.74,483.13,147.43,485.47,138.52,487.19ZM7.1,486.07c4.81-10.11,9.12-19.25,13.49-28.36,18.1-37.72,37-75.07,51.81-114.26,4.58-12.13,8.86-24.37,10.23-37.38C84,292.73,78,283.13,65.9,281.22c-19.47-3.08-36.69,1.36-49.93,17A115.79,115.79,0,0,0,3.13,317.83a764.35,764.35,0,0,0-60,141.93c-6,19.57-11.34,39.35-11.3,60.07,0,20.47,10.48,34.62,30.2,40,20.69,5.62,41.32,3.75,61.42-3,21.08-7,33.72-21.6,37.26-43.83,2.15-13.52-3.32-22.69-16.48-26.62a58,58,0,0,0-8.3-1.61C26.56,483.46,17.32,484.9,7.1,486.07Z" transform="translate(117.1 -229.75)"/><path class="cls-2" d="M701.44,261.66c-3.55,1.11-5.77.64-6.77-2.71a11.92,11.92,0,0,0-1.55-2.55c-1.09-1.78-2.53-3.53-4.72-3-2.6.6-.85,3.08-1.32,4.65s1.27,4.37-2.39,4.16c-3.24-.18-1.85-2.64-1.9-4.1-.17-4.83.06-9.66-.12-14.49-.09-2.63.8-3.57,3.42-3.36,3,.24,6,0,9,.3a5.24,5.24,0,0,1,5.07,4.08c.66,2.67.3,5.27-2.15,6.57s-2.22,1.93-.65,3.77S699.93,259.12,701.44,261.66ZM689.9,243.82c-1.46-.27-3-.1-2.94,3s1.37,3.21,3.64,3.06,5.16-.16,5-3.29C695.53,243.71,692.81,243.88,689.9,243.82Z" transform="translate(117.1 -229.75)"/><path class="cls-3" d="M385.6,395.32c5.8.11,12.27.32,18.57,2.24,13.51,4.13,21.12,13.62,21.82,27.71.95,19-4.15,37-11.08,54.32-13.22,33.15-34.18,59.7-67.43,74.73-22.52,10.17-46.11,12.65-70.2,6.52-25.82-6.57-42.34-26.33-45.37-52.77-2.64-23,2.29-45.05,8.1-67,9.53-36,23.2-70.33,42.06-102.47C293,320,306.63,303.81,325.69,292.91c23.21-13.27,48.46-15.55,74.45-13.45a97.65,97.65,0,0,1,23.43,4.72c25.63,8.65,36.69,27.1,32.17,53.7a76.58,76.58,0,0,1-4.86,17.23A45.54,45.54,0,0,1,396,381c-12.13-3.49-16.84-11.81-13.57-24.06.9-3.36,2.12-6.65,2.9-10,1.6-6.88-1.09-10.33-8.19-11.13-10.08-1.13-18.24,2.52-25,9.79a65.9,65.9,0,0,0-10.82,16.1c-16.61,34-30,69.11-38.79,106A58.61,58.61,0,0,0,300.86,482c.18,13.12,8.19,19.44,21.13,16.52a33.73,33.73,0,0,0,15.22-8.16c9.77-8.75,15.15-20,18.59-32.41.51-1.82.48-2.73-2-3.24-19.57-4-24.34-13.37-17.3-32,6.66-17.65,20.09-25.21,37.93-26.71C377.91,395.69,381.41,395.57,385.6,395.32Z" transform="translate(117.1 -229.75)"/><path class="cls-3" d="M433.22,501.43c1-28.09,6.9-53.14,14.64-77.79,9.5-30.28,20.26-60.11,35.39-88.1,11.4-21.1,26.54-38.84,49.38-48.17a112.93,112.93,0,0,1,72.89-4.67c25.55,6.71,40,25.93,41.43,53.39,1.42,27.16-4.54,53.23-11.9,79a408.49,408.49,0,0,1-38.12,91.2c-7.48,13.09-16.58,24.93-28,34.84-21.19,18.34-46.29,23.74-73.47,22.19a90.15,90.15,0,0,1-26.81-5.29c-20.79-7.82-31.75-23.19-34.56-44.8C433.46,508.66,433.39,504,433.22,501.43ZM569.28,336.85c-8.24,0-13,2.49-17.79,9.12A89.41,89.41,0,0,0,543,361.14c-13.14,28.36-23.8,57.65-33.07,87.47-3.5,11.26-7,22.53-8.26,34.34-.57,5.57.32,10.81,5.19,14.27,5.14,3.65,10.73,3,16.16.54,3.74-1.66,6.5-4.58,8.92-7.81a82.36,82.36,0,0,0,9-16A772,772,0,0,0,576,377.63c2.47-8.46,4.74-17,5.64-25.78C582.66,341.7,578.56,336.8,569.28,336.85Z" transform="translate(117.1 -229.75)"/><path class="cls-3" d="M138.52,487.19c8.91-1.72,17.22-4.06,25.8-4.78,8.81-.74,17.63-1.2,26.4.21,21.77,3.52,30.38,16.84,24.88,38.31-2.9,11.3-9.07,20.65-18.92,26.61-29.27,17.7-60.48,22.22-92.58,9.25-22.56-9.12-33.75-27.35-34-51.68C69.84,478.54,76.29,453,84,427.87c10.45-34,23.64-67,41-98.14a142.21,142.21,0,0,1,12.89-19c14.95-18.91,34.69-29.19,58.43-31.65,16.55-1.72,33.19-3.13,49.69.82a57.56,57.56,0,0,1,7.13,2.2c25,9.68,29.4,37.71,8.62,55-11.19,9.3-24.69,11.9-38.67,12.55-10,.46-20,.35-30,.41-2,0-3.71-.19-5,2.1A252.09,252.09,0,0,0,173,384.05c6.66-.45,12.89-1,19.12-1.24,8.33-.3,16.65-.15,24.65,2.7,11.42,4.07,16.21,12.33,14,24.16-4.35,23.17-19.6,36.65-43.21,38.38a125.12,125.12,0,0,1-31.81-2c-3.23-.59-5-.16-6.15,3.46-3.75,11.53-7.42,23.07-10.53,34.8C138.83,485.08,138.75,485.85,138.52,487.19Z" transform="translate(117.1 -229.75)"/><path class="cls-3" d="M7.1,486.07c10.22-1.17,19.46-2.61,28.78-1.27a58,58,0,0,1,8.3,1.61c13.16,3.93,18.63,13.1,16.48,26.62-3.54,22.23-16.18,36.79-37.26,43.83-20.1,6.71-40.73,8.58-61.42,3-19.72-5.37-30.15-19.52-30.2-40,0-20.72,5.28-40.5,11.3-60.07A764.35,764.35,0,0,1,3.13,317.83,115.79,115.79,0,0,1,16,298.26c13.24-15.68,30.46-20.12,49.93-17C78,283.13,84,292.73,82.63,306.07c-1.37,13-5.65,25.25-10.23,37.38C57.58,382.64,38.69,420,20.59,457.71,16.22,466.82,11.91,476,7.1,486.07Z" transform="translate(117.1 -229.75)"/><path class="cls-3" d="M689.9,243.82c2.91.06,5.63-.11,5.74,2.72.12,3.13-2.67,3.13-5,3.29s-3.62-.15-3.64-3.06S688.44,243.55,689.9,243.82Z" transform="translate(117.1 -229.75)"/><path class="cls-2" d="M569.28,336.85c9.28-.05,13.38,4.85,12.34,15-.9,8.8-3.17,17.32-5.64,25.78a772,772,0,0,1-35.06,96.29,82.36,82.36,0,0,1-9,16c-2.42,3.23-5.18,6.15-8.92,7.81-5.43,2.42-11,3.11-16.16-.54-4.87-3.46-5.76-8.7-5.19-14.27,1.22-11.81,4.76-23.08,8.26-34.34,9.27-29.82,19.93-59.11,33.07-87.47A89.41,89.41,0,0,1,551.49,346C556.29,339.34,561,336.9,569.28,336.85Z" transform="translate(117.1 -229.75)"/></svg>