<svg id="Layer_1" data-name="Layer 1" xmlns="http://www.w3.org/2000/svg" viewBox="0 0 829.38 382.41"><defs><style>.cls-1{fill:#fff;}</style></defs><path class="cls-1" d="M63.78,589.89c-26.59,16.88-55.95,21.94-86.64,20.84-23.9-.85-46-7.48-64.49-23.31s-28.15-36.47-29.6-60.67c-1.63-27.35,4.64-53.65,12.34-79.56,16.06-54.12,38.33-105.66,65.83-154.95C-29,274.74-17.1,259.1-.08,247.87c22.71-15,47.89-18.06,74.23-15.5a102.36,102.36,0,0,1,12.33,1.95c16.59,3.71,23.3,8.37,33.71,22.75,10-5.42,19.59-11.44,29.84-16,16.15-7.18,33.52-9.79,51.06-10.7,19.63-1,39.28-1.75,58.63,3.26A99.12,99.12,0,0,1,296,251.48c15.3-5.61,29.25-12.29,44-15.8,36.18-8.63,72.34-7.81,107.68,5.08,12.66,4.62,23.7,12,33.67,21.5,11.62-9.42,24.11-17,38.06-21.79,36.63-12.56,73.67-14.17,110.11-.42,38.23,14.43,59.4,43.64,64.38,83.7,4.06,32.62-.9,64.83-9.91,96.28-11.82,41.23-26.49,81.32-50.1,117.56-12.47,19.15-27.1,36.3-46,49.48-28.13,19.63-59.71,26.07-93.39,24.36a148.91,148.91,0,0,1-41.59-7.8c-16-5.57-22.5-10-45.4-30.61-53.06,47-136,51.37-183.33,14.19-24,16.32-51.1,23.39-79.89,24.54C115.24,612.9,88,606.84,63.78,589.89Zm47.76-290.07c-.22-3-.37-5-.49-6.93C110,275.15,100.4,262.2,83.38,257.2a99.78,99.78,0,0,0-23.58-3.7C32.39,252.29,9.51,261.82-7.3,284a158.85,158.85,0,0,0-12.42,19.3c-26.51,48.28-48.22,98.62-64.09,151.39-6.76,22.51-12.28,45.33-11.26,69.18,1.19,28.06,17.78,50.91,44.3,60,23.27,8,46.93,6.57,70.5,1.35A91.19,91.19,0,0,0,64.28,561.7c22.42,22.69,50.06,29.82,80.59,28.17,30-1.63,57.64-9.68,79.71-31.79,16.59,19.59,38,29.45,62.83,31.62C336.33,594,376.82,576.85,409.12,540c.8-.92,1.66-1.79,2.73-2.94.57,1.2.95,1.92,1.27,2.67,9.26,22.08,25.47,36.84,48.07,44.15,30.41,9.84,60.82,8.31,90.62-2.63,28.27-10.38,48.46-30.63,64.11-55.62,22.93-36.62,37.24-76.86,48-118.4,6.77-26,11.31-52.36,8.12-79.53-4.21-35.87-26.21-61.95-61.06-70.79a143.92,143.92,0,0,0-77,1.62c-22.52,6.59-41.16,19.26-56.46,37a7.69,7.69,0,0,1-1.11-1.22c-9.34-17.55-24-28.89-42.51-35-29.35-9.77-59.25-9.9-89.2-2.83a121.53,121.53,0,0,0-49.83,24.69c-14.14-19.35-34.33-26.83-56.64-28.92a191.68,191.68,0,0,0-66.47,4.89c-18.93,4.91-35.63,13.9-48.88,28.57C119.18,289.89,115.85,294.46,111.54,299.82Z" transform="translate(117.21 -229.65)"/><path class="cls-1" d="M712.17,251.33a21.1,21.1,0,0,1-42.2-.19,21.1,21.1,0,1,1,42.2.19Zm-4.1-.06a17,17,0,1,0-34-.28,17,17,0,0,0,34,.28Z" transform="translate(117.21 -229.65)"/><path class="cls-1" d="M413.82,524.55c-4.2,5.09-7.77,9.92-11.85,14.28-35.5,37.89-78.6,52.9-129.76,42-17.78-3.8-32.46-13.47-43.86-27.84-1.12-1.41-2.32-2.76-3.78-4.48-12.37,15.41-28.24,24.82-46.64,29.88-25.53,7-51.17,8.51-76.72-.12-14.57-4.92-26.62-13.56-36.71-25.62-10,11.11-21.73,19.13-35.63,23.61-24.79,8-50,10.13-75.21,2.69-26.29-7.76-41.87-29-42.72-56.39-.75-24.35,5.26-47.58,12.37-70.5A758.4,758.4,0,0,1-14.8,307.27,149.87,149.87,0,0,1,5.58,279.08c11.36-12.39,26.45-18.14,43.2-19.26,11.2-.74,22.33-.46,33.12,3.13,14.2,4.73,22.11,15,23.06,30,.55,8.61.92,17.23,1.42,26.79,1.23-1.56,2.05-2.43,2.69-3.43,1.8-2.8,3.62-5.6,5.26-8.49,16.25-28.54,41.56-43.54,73.39-47.6a254.53,254.53,0,0,1,45.82-2c24.47,1.33,46.55,8.75,59.75,32.15a24.86,24.86,0,0,0,2.21-1.52C325,263,360.11,255.55,397.93,258.61a155.19,155.19,0,0,1,36.46,7.62c17.91,6,31.34,17.95,38.89,35.76.64,1.5,1.49,2.91,2.58,5,2-2.29,3.71-4.23,5.38-6.23C503.3,274.24,532,261.14,566.07,259c14.51-.9,28.95-.13,43.13,3.61,32.67,8.63,52.89,32.2,56.85,65.75,3.13,26.5-1.49,52.16-8.08,77.53-10.53,40.57-24.48,79.87-46.67,115.74-14.88,24.07-34.12,43.67-61.2,53.72C521.48,586,492.21,587.54,462.93,578c-22.07-7.18-37.33-21.88-45.42-43.79C416.38,531.14,415.17,528.08,413.82,524.55Zm-57.48-68.82c-4.5,17.1-11.78,32.27-28.63,40.87a23.91,23.91,0,0,1-5.2,1.74c-13.38,3.31-21.64-3.11-21.59-16.83a41.72,41.72,0,0,1,.71-8.44C310.23,432.44,325,394,344,357.2a60.19,60.19,0,0,1,9.84-13.13c6.31-6.72,14.37-9.34,23.6-8.26,6.8.79,9.5,4.27,8,10.87-.81,3.56-2.13,7-3,10.55-2.87,11.23,1,19,11.12,23,16.2,6.23,38.54,1.07,49.37-12.38,12.39-15.4,16.38-33.42,12.38-52.64-3.49-16.77-15.8-26.1-31.21-30.7-31.19-9.32-62.22-8.45-92.15,5.23-22.4,10.24-37.69,28.21-49.87,48.95-19.51,33.23-33.43,68.8-43,106.06-5.36,20.84-9.73,41.81-7.12,63.64,3.14,26.32,19.58,45.84,45.18,52.54,19.18,5,38.33,4.05,57.2-1.6,28.4-8.51,49.88-26.33,65.74-50.9,16.08-24.93,26.15-52.07,25.94-82.14-.11-15.88-9.06-26.83-24.79-29.17a120.8,120.8,0,0,0-31.73-.12c-20.37,2.44-32.67,15.49-35.77,35.94-1.34,8.77,2.08,15.45,10.24,19C347.69,453.52,351.79,454.35,356.34,455.73ZM647,346.05c0-3.66.28-7.35-.05-11-2.16-24-12.38-42.49-36.19-50.79a94.56,94.56,0,0,0-23.88-4.75c-27-2-52.51,2.46-74.41,19.82-14.25,11.31-24.42,25.93-32.31,42.08A534.55,534.55,0,0,0,441,448.58c-5.11,20.74-9.18,41.69-7,63.24,2.28,22.83,13.62,39.43,35.74,46.55,27.3,8.79,54.62,7.7,80.74-4.85,19.24-9.23,32.89-24.74,43.79-42.67,17-27.88,29.28-57.85,38.9-89C640.78,397.18,646.43,372.06,647,346.05ZM172.25,383.87c5.57-11.09,10.61-21.37,16-31.47.67-1.26,3.13-2.16,4.8-2.22,9.65-.31,19.39.41,28.95-.62s19.49-2.74,28.63-5.92c11.95-4.15,19.88-13.05,22.95-25.71,3.66-15.11-1.2-26.13-15-33.25A52,52,0,0,0,246,280c-19.87-4.31-39.75-2.79-59.51.83-18.18,3.32-33.7,11.95-45.22,26.33a202.74,202.74,0,0,0-21,31.46C104,369.21,91.51,401.47,81.9,434.8,75.33,457.56,70,480.57,70,504.44c0,25.13,12.93,45,36.65,53.56,30.84,11.11,60.69,6.87,88.73-9.5,10.41-6.08,17.15-15.61,20.18-27.49,5.5-21.55-3-35.5-24.88-38.12-11.09-1.32-22.55-.09-33.79.67-6,.41-11.92,2.27-19,3.71,4-12.83,7.81-24.65,11.24-36.57,1.23-4.25,3.16-5,7.46-4.54,10.56,1.07,21.25,2.13,31.82,1.64C211.3,446.73,227,432,230.78,409.22c1.95-11.72-2.67-20.15-14.09-23.55a78.53,78.53,0,0,0-19.63-2.81C189.29,382.6,181.48,383.44,172.25,383.87ZM7.18,485.9c4.61-9.73,9.05-18.81,13.24-28,17.37-38.14,35.09-76.12,51.71-114.58,5.08-11.76,7.91-24.7,10.24-37.38,2.39-13-4.2-22.59-16.12-24.64-19-3.27-36.34.63-49.3,16A129,129,0,0,0,2.84,318.39,752.41,752.41,0,0,0-57,459.67c-6,19.42-11.25,39.07-11.32,59.63-.07,21.06,10.35,35.26,30.67,40.68,21.06,5.6,42.05,3.63,62.38-3.56S57.24,534.62,60.62,513c2.12-13.54-3.31-23.1-16.6-26.45-6.67-1.68-13.81-1.81-20.75-2C18.19,484.43,13.07,485.37,7.18,485.9Z" transform="translate(117.21 -229.65)"/><path class="cls-1" d="M682.82,240.21c3.47,0,6.42-.05,9.36,0,3.4.08,7.41.21,7.8,4.4.25,2.7-1.6,5.61-2.51,8.43l-1.32-.37c1.69,2.8,3.37,5.6,5.22,8.68-3.29,1.4-5.11.8-6.57-2.21-1.38-2.83-2.68-6.28-7.5-5.7v7.91l-1.23,1.07c-1.08-.93-3.06-1.81-3.1-2.78C682.69,253.38,682.82,247.09,682.82,240.21ZM687,243c.22,3.21.32,4.79.5,7.35,2.92-.8,5.35-1.35,7.66-2.22.37-.15.47-2.45.24-2.54C693,244.67,690.44,244,687,243Z" transform="translate(117.21 -229.65)"/><path class="cls-1" d="M501.69,479.6c2.27-8.41,4.91-21.69,9.43-34.3,10.08-28.14,21-56,31.86-83.85,2.22-5.66,5.7-10.9,9-16,5.08-7.8,12.89-9.52,21.51-8.31,4.16.59,7.42,3.32,7.47,7.56.07,6.41,0,13-1.51,19.2a666.36,666.36,0,0,1-40.52,114A49.61,49.61,0,0,1,530.86,491c-3.11,3.39-7.33,6.55-11.65,7.88C508.75,502.05,501.1,495.42,501.69,479.6Z" transform="translate(117.21 -229.65)"/></svg>