<svg width="700" height="700" viewBox="0 0 700 700" fill="none" xmlns="http://www.w3.org/2000/svg">
<path d="M585.264 166H549.928C526.395 166.018 503.708 175.032 486.279 191.291C468.851 207.552 457.924 229.896 455.623 253.978C455.41 254.778 455.253 255.589 455.152 256.41V384.736C455.152 410.61 441.726 434.521 419.935 447.457C398.144 460.395 371.293 460.395 349.502 447.457C327.711 434.521 314.286 410.61 314.286 384.736V261.879C314.286 261.757 314.167 261.515 314.167 261.393V261.39C313.639 235.925 303.436 211.687 285.746 193.857C268.053 176.031 244.28 166.031 219.509 166H184.173C180.941 165.994 177.843 167.312 175.561 169.662C173.276 172.009 171.994 175.194 172 178.518V384.736C172 442.748 194.411 498.383 234.305 539.403C274.196 580.425 328.304 603.47 384.72 603.47C441.136 603.47 495.242 580.425 535.135 539.403C575.029 498.385 597.44 442.747 597.44 384.736V178.518C597.446 175.195 596.164 172.009 593.879 169.662C591.597 167.312 588.499 165.994 585.267 166L585.264 166ZM573.094 384.733C573.094 436.105 553.246 485.373 517.92 521.698C482.593 558.024 434.678 578.432 384.72 578.432C334.761 578.432 286.847 558.024 251.52 521.698C216.194 485.373 196.346 436.104 196.346 384.733V275.976H289.942V384.733C289.942 419.55 308.006 451.726 337.329 469.132C366.656 486.541 402.783 486.541 432.111 469.132C461.434 451.724 479.497 419.548 479.497 384.733V275.976H573.094V384.733Z" fill="black"/>
</svg>
