<svg width="561" height="561" viewBox="0 0 561 561" fill="none" xmlns="http://www.w3.org/2000/svg">
<path d="M543.977 0H497.465C466.488 0.023438 436.625 11.562 413.684 32.375C390.743 53.191 376.36 81.793 373.332 112.621C373.051 113.644 372.844 114.683 372.711 115.734V280.004C372.711 313.125 355.039 343.734 326.356 360.293C297.672 376.855 262.329 376.855 233.645 360.293C204.961 343.734 187.29 313.125 187.29 280.004V122.734C187.29 122.578 187.134 122.269 187.134 122.113V122.109C186.438 89.5113 173.009 58.4843 149.724 35.6603C126.435 12.8403 95.1415 0.039304 62.5355 0.000304H16.0235C11.7696 -0.0075085 7.69153 1.68 4.68753 4.6878C1.67973 7.6917 -0.00777308 11.7698 2.69202e-05 16.0238V280.004C2.69202e-05 354.266 29.5 425.484 82.012 477.994C134.52 530.506 205.742 560.006 280.002 560.006C354.262 560.006 425.482 530.506 477.992 477.994C530.504 425.486 560.004 354.264 560.004 280.004V16.0238C560.012 11.7699 558.324 7.6918 555.317 4.6878C552.313 1.68 548.235 -0.007496 543.981 0.000304L543.977 0ZM527.957 280C527.957 345.762 501.832 408.83 455.332 455.33C408.832 501.83 345.762 527.955 280.002 527.955C214.242 527.955 151.172 501.83 104.672 455.33C58.1719 408.83 32.0469 345.76 32.0469 280V140.78H155.247V280C155.247 324.57 179.024 365.758 217.622 388.04C256.224 410.325 303.778 410.325 342.382 388.04C380.98 365.755 404.757 324.567 404.757 280V140.78H527.957V280Z" fill="black"/>
</svg>
