<svg width="700" height="700" viewBox="0 0 700 700" fill="none" xmlns="http://www.w3.org/2000/svg">
<path d="M464.558 352.841H248.398C245.597 352.841 242.796 351.161 241.117 348.36C239.437 345.559 239.437 342.759 241.117 339.962L349.197 152.922C350.876 150.121 353.677 149 356.478 149C359.279 149 362.08 150.68 363.759 152.922L471.839 339.962C473.519 342.763 473.519 345.563 471.839 348.36C470.163 351.161 467.363 352.841 464.562 352.841H464.558ZM282.5 316.498L423.5 339.962L363.759 181.5L282.5 316.498Z" fill="black"/>
<path d="M535.678 551.081H367.118C362.637 551.081 358.72 547.159 358.72 542.682V374.122C358.72 369.642 362.641 365.724 367.118 365.724H535.678C540.159 365.724 544.076 369.646 544.076 374.122V542.682C544.08 547.167 540.162 551.085 535.682 551.085L535.678 551.081ZM383.918 514L521 542.682L529.4 403.403L383.918 395V514Z" fill="black"/>
<path d="M248.398 550.521C197.437 550.521 156 509.08 156 458.123C156 407.162 197.441 365.725 248.398 365.725C299.359 365.725 340.796 407.166 340.796 458.123C340.8 509.08 299.358 550.521 248.398 550.521ZM228.5 398C187.059 398 172.796 416.681 172.796 458.123C172.796 499.564 232.558 517 274 517C315.442 517 324 499.565 324 458.123C324 416.682 269.942 398 228.5 398Z" fill="black"/>
</svg>
