<?xml version="1.0" encoding="utf-8"?>
<!-- Generator: Adobe Illustrator 24.1.2, SVG Export Plug-In . SVG Version: 6.00 Build 0)  -->
<svg version="1.1" id="Layer_1" xmlns="http://www.w3.org/2000/svg" xmlns:xlink="http://www.w3.org/1999/xlink" x="0px" y="0px"
	 viewBox="0 0 108.4 144.9" style="enable-background:new 0 0 108.4 144.9;" xml:space="preserve">
<style type="text/css">
	.st0{fill:#391D0C;stroke:#FFFFFF;stroke-miterlimit:10;}
	.st1{fill:#FFFFFF;}
	.st2{fill:#59863C;stroke:#231F20;stroke-miterlimit:10;}
	.st3{opacity:0.35;fill:#231F20;stroke:#231F20;stroke-miterlimit:10;enable-background:new    ;}
	.st4{fill:none;stroke:#231F20;stroke-miterlimit:10;}
	.st5{opacity:0.56;fill:#754C29;stroke:#281D0C;stroke-miterlimit:10;enable-background:new    ;}
</style>
<ellipse class="st0" cx="47.6" cy="68.8" rx="47.1" ry="68.3"/>
<path class="st1" d="M50,17.4c0,1.2-0.1,2.3-0.2,3.5c-0.2,1.2-0.4,2.3-0.7,3.4c-0.6,2.3-1.4,4.4-2.2,6.6s-1.6,4.3-2.3,6.4
	c-0.6,2.2-1.2,4.3-1.6,6.6c-1.6,8.9-1,18,1.7,26.5c1.3,4.3,3,8.6,4.6,12.9c1.7,4.3,3.2,8.7,4.4,13.2c0.6,2.3,1,4.6,1.3,6.9
	c0.3,2.3,0.4,4.7,0.3,7c-0.2,4.7-1.5,9.3-3.9,13.3c1.8-4.2,2.6-8.7,2.4-13.3c-0.2-4.5-1-9-2.4-13.3c-1.3-4.3-3-8.5-4.8-12.8
	s-3.5-8.5-4.8-13c-1.4-4.5-2.2-9.2-2.4-13.9c-0.2-4.7,0.3-9.4,1.3-14c0.5-2.3,1.2-4.5,2-6.7c0.8-2.2,1.8-4.3,2.8-6.4
	C47.4,26.2,49.4,22,50,17.4z"/>
<path class="st2" d="M99.2,105.5c-4.5,9.5-11.3,17.8-19.8,24.1c-9.6,7-20.6,11.8-32.2,14c3.2-3.6,5.3-8.2,6-13
	c0.8-7.5-3.1-11.8-4.6-17.5c-2.5-9.4,2.6-17.5,9.5-28.3c14.3-22.7,37.5-38.6,49.3-46c-1.2,3-2,6.1-2.5,9.3
	c-1.6,9.8,0.7,16.4,1.7,21.8C109.4,85.5,102.5,99.1,99.2,105.5z"/>
<path class="st3" d="M95.9,104.7c-10.1,18.1-26.2,32-45.5,39.6c-0.5-1-0.9-1.9-1.3-2.9l52.5-94C108.3,64,106.9,84.9,95.9,104.7z"/>
<line class="st4" x1="68.7" y1="100" x2="63" y2="85.8"/>
<line class="st4" x1="76.6" y1="88" x2="70.9" y2="75.5"/>
<path class="st5" d="M25,22c0,0-36,47.2-1.4,94.3S25,78.5,25,78.5S18.9,59,25,22z"/>
</svg>
