<svg id="Layer_1" data-name="Layer 1" xmlns="http://www.w3.org/2000/svg" viewBox="0 0 107.9 144.39"><defs><style>.cls-1{fill:#391d0c;}.cls-2{fill:#fff;}.cls-3{fill:#59863c;}.cls-3,.cls-4,.cls-5{stroke:#231f20;}.cls-3,.cls-4,.cls-5,.cls-6{stroke-miterlimit:10;}.cls-4{fill:#231f20;opacity:0.35;}.cls-4,.cls-6{isolation:isolate;}.cls-5{fill:none;}.cls-6{fill:#754c29;stroke:#281d0c;opacity:0.56;}</style></defs><ellipse class="cls-1" cx="47.07" cy="68.29" rx="47.07" ry="68.29"/><path class="cls-2" d="M50,17.43a25,25,0,0,1-.2,3.46,33.44,33.44,0,0,1-.7,3.42c-.6,2.25-1.42,4.42-2.22,6.58s-1.65,4.27-2.28,6.43a56.52,56.52,0,0,0,.13,33.11C46,74.75,47.66,79,49.3,83.29a118,118,0,0,1,4.38,13.2,53.75,53.75,0,0,1,1.29,6.9,44.22,44.22,0,0,1,.26,7,27.76,27.76,0,0,1-3.91,13.3,30.47,30.47,0,0,0,2.35-13.3,51.59,51.59,0,0,0-2.36-13.26c-1.34-4.3-3-8.54-4.78-12.78s-3.45-8.55-4.83-13a57.11,57.11,0,0,1-2.39-13.9,52.76,52.76,0,0,1,1.31-14,51.1,51.1,0,0,1,2-6.74c.82-2.19,1.82-4.3,2.8-6.37C47.41,26.17,49.41,22,50,17.43Z" transform="translate(-0.5 -0.5)"/><path class="cls-3" d="M99.22,105.54a64.89,64.89,0,0,1-19.78,24.15,80.34,80.34,0,0,1-32.18,14,24.77,24.77,0,0,0,6-13c.79-7.47-3.11-11.77-4.65-17.47-2.53-9.35,2.63-17.51,9.45-28.3,14.31-22.66,37.46-38.6,49.33-46a46.67,46.67,0,0,0-2.52,9.28c-1.59,9.82.72,16.4,1.69,21.79C109.36,85.53,102.46,99.14,99.22,105.54Z" transform="translate(-0.5 -0.5)"/><path class="cls-4" d="M95.87,104.69a89.52,89.52,0,0,1-45.54,39.56c-.45-.95-.87-1.9-1.26-2.87l52.46-94C108.32,64,106.91,84.92,95.87,104.69Z" transform="translate(-0.5 -0.5)"/><line class="cls-5" x1="68.17" y1="99.48" x2="62.52" y2="85.34"/><line class="cls-5" x1="76.11" y1="87.53" x2="70.4" y2="75.01"/><path class="cls-6" d="M25,22s-36,47.16-1.44,94.32S25,78.49,25,78.49,18.9,59.05,25,22Z" transform="translate(-0.5 -0.5)"/></svg>