<svg id="Layer_1" data-name="Layer 1" xmlns="http://www.w3.org/2000/svg" viewBox="0 0 349.23 123.48"><defs><style>.cls-1{fill:none;}.cls-2{fill:#f3de38;}</style></defs><path class="cls-1" d="M294.52,414q0,49.35.06,98.7c0,2-.4,2.35-2.35,2.35q-85.61-.09-171.21,0c-2,0-2.36-.39-2.35-2.35q.1-49.35,0-98.7c4.94.05,9.88.08,14.82.15,1.09,0,1.88-.06,1.84-1.51-.19-7,.3-14-.26-20.94h55.1c-.05,6.93-.09,13.85-.19,20.78,0,1.28.44,1.69,1.7,1.68q14.9,0,29.79,0c1.26,0,1.71-.4,1.69-1.68-.1-6.93-.13-13.85-.19-20.78h55.1c-.56,7-.06,14-.26,20.94,0,1.45.76,1.53,1.84,1.51C284.64,414.08,289.58,414.05,294.52,414Zm-88.06,99c27.65,0,55.31,0,83,.06,2.59,0,3.19-.68,3.19-3.22q-.15-45.24,0-90.48c0-2.69-.58-3.42-3.36-3.42q-82.62.13-165.26,0c-2.77,0-3.36.74-3.36,3.42q.16,45.24,0,90.48c0,2.55.6,3.23,3.19,3.22C151.37,513,178.92,513,206.46,513Zm-43.8-119.36c-7.64,0-15.27.06-22.91,0-1.92,0-2.68.37-2.61,2.49.16,5.12.12,10.25,0,15.37,0,1.76.35,2.48,2.31,2.47q23.25-.1,46.48,0c2,0,2.28-.83,2.25-2.52-.09-4.91-.16-9.82,0-14.72.09-2.35-.41-3.19-3-3.12C177.72,393.8,170.19,393.67,162.66,393.67Zm87.89,0c-7.64,0-15.28.06-22.91,0-1.92,0-2.69.34-2.62,2.47.17,5.13.12,10.26,0,15.38,0,1.74.31,2.49,2.3,2.48q23.24-.1,46.47,0c2,0,2.3-.8,2.27-2.51-.08-5-.17-10,0-15.05.1-2.44-.83-2.81-3-2.78C265.6,393.74,258.07,393.67,250.55,393.67Z" transform="translate(-31.48 -391.7)"/><path class="cls-2" d="M118.52,513.11c-27.55,0-55.09,0-82.63.06-2.59,0-3.2-.67-3.2-3.21q.15-45.24,0-90.48c0-2.69.58-3.43,3.36-3.43q82.64.15,165.26,0c2.77,0,3.37.74,3.36,3.42q-.16,45.24,0,90.49c0,2.53-.59,3.22-3.19,3.21C173.82,513.07,146.17,513.11,118.52,513.11Z" transform="translate(-31.48 -391.7)"/><path class="cls-2" d="M75.32,400.23c7.53,0,15.06.13,22.58-.07,2.58-.06,3.07.77,3,3.12-.18,4.9-.11,9.82,0,14.73,0,1.69-.22,2.53-2.25,2.52q-23.23-.12-46.47,0c-2,0-2.35-.71-2.32-2.47.1-5.13.14-10.26,0-15.38-.07-2.12.69-2.51,2.61-2.49C60.05,400.29,67.69,400.23,75.32,400.23Z" transform="translate(-31.48 -391.7)"/><path class="cls-2" d="M163.21,400.23c7.52,0,15,.08,22.58,0,2.15,0,3.08.33,3,2.78-.21,5-.12,10,0,15,0,1.71-.26,2.52-2.28,2.51q-23.24-.12-46.47,0c-2,0-2.33-.74-2.3-2.49.1-5.12.15-10.25,0-15.37-.06-2.13.7-2.5,2.62-2.48C147.93,400.29,155.57,400.23,163.21,400.23Z" transform="translate(-31.48 -391.7)"/><path class="cls-1" d="M207.33,414.08q0,49.35.06,98.71c0,2-.4,2.35-2.35,2.35q-85.6-.1-171.21,0c-2,0-2.36-.4-2.35-2.35q.11-49.36.05-98.71c4.94.05,9.88.09,14.82.16,1.09,0,1.88-.07,1.84-1.52-.19-7,.3-14-.26-20.94H103c0,6.93-.09,13.86-.19,20.79,0,1.27.44,1.68,1.7,1.68q14.89-.06,29.79,0c1.26,0,1.71-.41,1.69-1.68-.1-6.93-.13-13.86-.19-20.79h55.1c-.56,7-.06,14-.26,20.94,0,1.45.76,1.53,1.84,1.52C197.45,414.17,202.39,414.13,207.33,414.08Zm-88.06,99c27.65,0,55.31,0,83,.06,2.59,0,3.19-.68,3.19-3.21q-.15-45.25,0-90.49c0-2.68-.58-3.42-3.36-3.42q-82.62.15-165.26,0c-2.77,0-3.37.74-3.36,3.43q.16,45.24,0,90.48c0,2.54.6,3.22,3.19,3.21C64.18,513.07,91.73,513.11,119.27,513.11ZM75.47,393.75c-7.64,0-15.27.06-22.91,0-1.92,0-2.68.37-2.61,2.49.16,5.12.11,10.25,0,15.38,0,1.76.35,2.48,2.31,2.47q23.23-.12,46.48,0c2,0,2.28-.83,2.25-2.53-.09-4.9-.16-9.82,0-14.72.09-2.35-.41-3.18-3-3.12C90.53,393.88,83,393.75,75.47,393.75Zm87.88,0c-7.63,0-15.27.06-22.9,0-1.92,0-2.69.35-2.62,2.48.17,5.12.12,10.25,0,15.37,0,1.75.31,2.5,2.3,2.49q23.23-.12,46.47,0c2,0,2.3-.8,2.27-2.51-.08-5-.17-10,0-15.05.1-2.45-.83-2.82-3-2.78C178.41,393.83,170.88,393.75,163.35,393.75Z" transform="translate(-31.48 -391.7)"/><path class="cls-2" d="M206.46,513.11c-27.54,0-55.09,0-82.63.06-2.59,0-3.2-.67-3.19-3.21q.14-45.24,0-90.48c0-2.69.59-3.43,3.36-3.43q82.64.15,165.26,0c2.78,0,3.37.74,3.36,3.42q-.15,45.24,0,90.49c0,2.53-.6,3.22-3.19,3.21C261.77,513.07,234.11,513.11,206.46,513.11Z" transform="translate(-31.48 -391.7)"/><path class="cls-2" d="M250.55,400.32c7.52,0,15.05.07,22.58-.05,2.15,0,3.08.33,3,2.78-.2,5-.11,10,0,15.05,0,1.71-.25,2.52-2.27,2.51q-23.24-.12-46.47,0c-2,0-2.33-.74-2.3-2.48.1-5.13.15-10.26,0-15.38-.07-2.13.7-2.5,2.62-2.48C235.27,400.37,242.91,400.32,250.55,400.32Z" transform="translate(-31.48 -391.7)"/><path class="cls-1" d="M380.65,414q0,49.35.06,98.7c0,2-.4,2.36-2.35,2.35q-85.61-.09-171.21,0c-2,0-2.36-.39-2.35-2.35q.1-49.35,0-98.7c4.94,0,9.88.09,14.82.16,1.09,0,1.88-.07,1.84-1.52-.19-7,.3-14-.26-20.94h55.1c-.05,6.93-.09,13.86-.19,20.78,0,1.28.44,1.69,1.7,1.69q14.89-.06,29.79,0c1.26,0,1.71-.41,1.69-1.69-.1-6.92-.13-13.85-.19-20.78h55.1c-.56,7-.06,14-.26,20.94,0,1.45.76,1.53,1.84,1.52C370.77,414.13,375.71,414.09,380.65,414Zm-88.06,99c27.65,0,55.31,0,83,.06,2.59,0,3.19-.68,3.19-3.22q-.15-45.24,0-90.48c0-2.68-.58-3.42-3.36-3.42q-82.62.14-165.26,0c-2.77,0-3.36.74-3.36,3.42q.17,45.24,0,90.49c0,2.54.6,3.22,3.19,3.21C237.5,513,265.05,513.07,292.59,513.07Zm-43.8-119.36c-7.64,0-15.27.06-22.91,0-1.92,0-2.68.37-2.61,2.49.16,5.12.12,10.25,0,15.37,0,1.77.35,2.48,2.31,2.47q23.25-.11,46.48,0c2,0,2.28-.83,2.25-2.53-.09-4.9-.16-9.82,0-14.72.09-2.35-.41-3.19-3-3.12C263.85,393.84,256.32,393.71,248.79,393.71Zm87.89,0c-7.64,0-15.28.06-22.91,0-1.92,0-2.69.34-2.62,2.48.17,5.12.12,10.25,0,15.37,0,1.74.31,2.5,2.3,2.49q23.23-.12,46.47,0c2,0,2.3-.81,2.27-2.52-.08-5-.17-10,0-15,.1-2.45-.83-2.82-3-2.79C351.73,393.78,344.2,393.71,336.68,393.71Z" transform="translate(-31.48 -391.7)"/><path class="cls-1" d="M293.46,414.12q0,49.35.06,98.71c0,1.95-.4,2.35-2.35,2.35q-85.61-.1-171.21,0c-2,0-2.36-.4-2.35-2.35q.11-49.35,0-98.71c4.94.05,9.88.09,14.82.16,1.09,0,1.88-.06,1.84-1.51-.19-7,.3-14-.26-20.95h55.1c0,6.93-.09,13.86-.19,20.79,0,1.27.44,1.68,1.7,1.68q14.9-.06,29.79,0c1.26,0,1.71-.41,1.69-1.68-.1-6.93-.13-13.86-.19-20.79h55.1c-.56,7-.06,14-.26,20.95,0,1.45.76,1.52,1.84,1.51C283.58,414.21,288.52,414.17,293.46,414.12Zm-88.06,99c27.65,0,55.31,0,83,.07,2.59,0,3.19-.68,3.19-3.22q-.15-45.24,0-90.49c0-2.68-.58-3.42-3.36-3.41q-82.62.13-165.26,0c-2.77,0-3.37.73-3.36,3.42q.17,45.24,0,90.48c0,2.54.6,3.22,3.19,3.22C150.31,513.11,177.86,513.15,205.4,513.15ZM161.6,393.79c-7.64,0-15.27.06-22.91,0-1.92,0-2.68.37-2.61,2.49.16,5.12.11,10.25,0,15.38,0,1.76.35,2.48,2.31,2.47q23.24-.12,46.48,0c2,0,2.28-.83,2.25-2.52-.09-4.91-.16-9.82,0-14.73.09-2.34-.41-3.18-3-3.12C176.66,393.92,169.13,393.79,161.6,393.79Zm87.88,0c-7.63,0-15.27.06-22.9,0-1.92,0-2.69.35-2.62,2.48.17,5.12.12,10.25,0,15.38,0,1.74.31,2.49,2.3,2.48q23.24-.12,46.47,0c2,0,2.3-.8,2.27-2.51-.08-5-.17-10,0-15.05.1-2.45-.83-2.82-3-2.78C264.54,393.87,257,393.79,249.48,393.79Z" transform="translate(-31.48 -391.7)"/><path class="cls-2" d="M320.24,513.15c-18.71,0-37.41,0-56.12.07-1.76,0-2.17-.68-2.16-3.22q.09-45.24,0-90.48c0-2.69.4-3.43,2.28-3.42q56.11.13,112.23,0c1.89,0,2.29.73,2.28,3.41q-.11,45.24,0,90.49c0,2.54-.4,3.23-2.17,3.22C357.79,513.11,339,513.15,320.24,513.15Z" transform="translate(-31.48 -391.7)"/><path class="cls-2" d="M336.68,400.36c7.52,0,15.05.07,22.58-.05,2.15,0,3.08.34,3,2.78-.2,5-.11,10,0,15.05,0,1.71-.25,2.52-2.27,2.51q-23.24-.12-46.47,0c-2,0-2.33-.74-2.3-2.48.1-5.12.15-10.26,0-15.38-.07-2.13.7-2.5,2.62-2.47C321.4,400.42,329,400.36,336.68,400.36Z" transform="translate(-31.48 -391.7)"/></svg>