<svg id="Layer_1" data-name="Layer 1" xmlns="http://www.w3.org/2000/svg" viewBox="0 0 108.39 144.91"><defs><style>.cls-1{fill:#2e1c12;stroke:#fff;}.cls-1,.cls-3,.cls-4,.cls-5,.cls-6{stroke-miterlimit:10;}.cls-2{fill:#fff;}.cls-3{fill:#59863c;}.cls-3,.cls-4,.cls-5,.cls-6{stroke:#231f20;}.cls-4{fill:#231f20;opacity:0.35;}.cls-5{fill:none;}.cls-6{fill:#754c29;opacity:0.56;}</style></defs><ellipse class="cls-1" cx="47.57" cy="68.79" rx="47.07" ry="68.29"/><path class="cls-2" d="M300,369.74a25.1,25.1,0,0,1-.2,3.46,33.44,33.44,0,0,1-.7,3.42c-.6,2.25-1.42,4.42-2.22,6.58s-1.65,4.27-2.28,6.43a57.35,57.35,0,0,0-1.56,6.56,56.47,56.47,0,0,0,1.69,26.55c1.28,4.32,2.95,8.56,4.59,12.86a118,118,0,0,1,4.38,13.2,55.53,55.53,0,0,1,1.29,6.9,43.43,43.43,0,0,1,.26,7A27.8,27.8,0,0,1,301.34,476a30.41,30.41,0,0,0,2.35-13.3,51.67,51.67,0,0,0-2.36-13.26c-1.34-4.3-3-8.54-4.78-12.78s-3.45-8.55-4.83-13a56.86,56.86,0,0,1-2.39-13.9,52.83,52.83,0,0,1,1.31-14,50.7,50.7,0,0,1,2-6.74c.82-2.19,1.82-4.3,2.8-6.37C297.43,378.48,299.43,374.34,300,369.74Z" transform="translate(-250.02 -352.31)"/><path class="cls-3" d="M349.24,457.85A64.86,64.86,0,0,1,329.46,482a80.47,80.47,0,0,1-32.18,14,24.76,24.76,0,0,0,6-13c.79-7.47-3.11-11.77-4.65-17.47-2.53-9.35,2.63-17.51,9.45-28.3,14.31-22.66,37.46-38.6,49.33-46a46.36,46.36,0,0,0-2.52,9.28c-1.59,9.82.72,16.4,1.69,21.79C359.38,437.84,352.48,451.45,349.24,457.85Z" transform="translate(-250.02 -352.31)"/><path class="cls-4" d="M345.89,457a89.53,89.53,0,0,1-45.54,39.56c-.45-.95-.87-1.9-1.26-2.87l52.46-94.05C358.34,416.33,356.93,437.23,345.89,457Z" transform="translate(-250.02 -352.31)"/><line class="cls-5" x1="68.67" y1="99.98" x2="63.02" y2="85.84"/><line class="cls-5" x1="76.61" y1="88.03" x2="70.9" y2="75.51"/><path class="cls-6" d="M275,374.28s-36,47.16-1.44,94.32S275,430.8,275,430.8,268.92,411.36,275,374.28Z" transform="translate(-250.02 -352.31)"/></svg>